<svg width="91" height="62" viewBox="0 0 91 62" fill="none" xmlns="http://www.w3.org/2000/svg">
<path d="M46.6292 33.5861C43.336 34.1232 39.9811 34.2989 36.6451 34.1106C34.5287 33.9951 32.3158 33.691 30.5965 32.4428C28.4143 30.8659 27.4329 27.7981 28.2887 25.2481C28.7487 23.8711 29.6582 22.7122 30.4859 21.5155C31.5929 19.9165 32.6141 18.1485 32.6637 16.199C32.7238 14.2593 31.511 12.1576 29.5991 11.8238C29.2856 11.773 28.9533 11.7632 28.6662 11.9135C28.2008 12.1501 28.008 12.7416 28.0344 13.2656C28.071 13.7893 28.2777 14.2874 28.4245 14.7976C28.7522 15.948 28.7512 17.1996 28.3945 18.3412C27.5462 21.1332 24.8399 23.0649 24.0831 25.8843C23.8222 26.8715 23.8142 27.9013 23.8863 28.9184C23.9725 30.0663 24.1806 31.2508 24.8243 32.2096C25.426 33.1093 26.3611 33.736 27.3223 34.2308C30.8804 36.0472 35.0133 36.3014 39.0093 36.358C41.8378 36.4006 44.6738 36.3623 47.4821 36.0827C49.2674 35.9057 51.0791 35.6068 52.673 34.7797C54.4846 33.8348 53.7653 32.0709 51.854 32.0802C51.1498 32.0821 50.479 32.5068 49.8427 32.7488C48.8194 33.1643 47.7402 33.4 46.6292 33.5861Z" fill="#FF9F48"/>
<path d="M17.4661 45.9141C16.0439 46.1201 14.3378 46.5772 13.979 47.9711C13.7546 48.8361 14.1753 49.7414 14.6911 50.4721C15.0383 50.9558 15.4658 51.437 16.0441 51.5904C17.0078 51.8429 17.9503 51.0968 18.5592 50.3006C19.1682 49.5043 19.7532 48.5878 20.2594 47.7241C20.899 46.6241 23.0614 44.9921 23.7153 44.9918C32.7061 44.8719 39.143 51.8768 50.1489 45.1031C51.0274 44.5608 51.5345 47.583 52.2558 46.8438C52.9869 46.0942 53.1636 44.9885 53.3224 43.9541C53.5373 42.4637 53.7501 40.9027 53.2526 39.475C53.131 39.1255 52.9488 38.7679 52.6406 38.5656C52.2398 38.2955 51.7077 38.3324 51.2162 38.378C48.2571 38.6624 45.2977 38.9367 42.3386 39.2211C38.1555 39.6144 33.9624 40.0081 29.7956 40.6028C25.8591 41.16 21.9082 41.8993 18.2231 43.4176C16.614 44.0836 14.9052 45.0959 14.4651 46.7851C14.6017 46.6497 14.7386 46.5243 14.8853 46.3885L17.4661 45.9141Z" fill="#FF9F48"/>
<path d="M48.0458 28.3843C45.9927 29.6496 45.2252 32.4492 43.1822 33.7142C36.8263 37.6576 28.9928 38.1046 21.836 40.2463C16.7727 41.7673 11.8982 44.1807 6.62835 44.5677C5.35344 44.6581 4.0047 44.6397 2.87686 45.2503C1.74902 45.8609 0.971541 47.379 1.65958 48.4677C2.42144 49.6651 4.19607 49.4683 5.56329 49.1126C16.6907 46.2209 27.743 42.2112 39.233 42.225C41.4464 42.2264 43.6747 42.3787 45.8567 42.0177C48.1389 41.6435 50.3226 40.6971 52.1599 39.2871C54.3709 37.603 56.8708 43.5402 59.2712 42.1227C61.2665 40.9399 64.2483 43.3093 66.5716 43.287C68.0601 43.2707 68.7919 32.2566 69.723 30.8245C70.6444 29.4029 69.5799 26.8927 67.9374 26.49C66.5484 26.1499 64.7826 26.6291 63.3186 26.4629C61.0168 26.212 58.3497 25.5385 56.0301 25.6818C51.4518 25.9865 50.2861 26.992 48.0458 28.3843Z" fill="#FFB85A"/>
<path d="M80.2788 15.4455C80.5019 18.3958 82.7415 20.8388 83.3353 23.7371C83.7995 26.0339 83.1999 28.4144 82.4647 30.6377C81.9862 32.0657 81.4471 33.4855 80.6108 34.7329C79.7746 35.9803 78.6006 37.0466 77.1766 37.515C75.3046 38.1388 73.2067 37.6494 71.5242 36.612C69.2776 35.2289 65.6766 29.7905 65.1193 27.0929C64.8122 25.6391 67.8796 23.0299 67.2649 14.3187C67.1236 12.3752 76.0821 17.656 80.2788 15.4455Z" fill="#FFB85A"/>
<path d="M83.1308 5.64679C83.6072 5.11714 84.1662 4.65555 84.5701 4.05752C85.0505 3.33597 85.2627 2.40077 84.9655 1.58245C84.6783 0.763819 83.8235 0.134529 82.9617 0.242248C81.7188 0.39217 81.0095 1.83748 79.8141 2.21806C79.4554 2.33021 79.0734 2.34217 78.7157 2.48457C78.368 2.62666 78.0461 2.94962 78.0983 3.33152C78.1357 3.56249 78.3025 3.74903 78.4687 3.91541C79.0916 4.53177 79.7925 5.06495 80.3862 5.7125C81.1882 6.58568 81.1965 7.49378 81.6691 8.44792C82.2541 7.53134 82.3633 6.51862 83.1308 5.64679Z" fill="#FF9F48"/>
<path d="M83.4008 4.61894C83.7776 4.12269 84.2656 3.64313 84.367 3.02429C84.4339 2.5882 84.2676 2.09885 83.8976 1.84801C83.5275 1.59718 82.9656 1.64504 82.6949 1.99668C82.5015 2.24496 82.482 2.58873 82.3706 2.88492C82.1203 3.56898 81.441 4.04442 81.2417 4.74708C81.1418 5.09336 81.1736 5.46581 81.2249 5.81746C81.3032 6.39031 81.4317 6.96158 81.6002 7.52152C81.6344 7.65166 81.6991 7.79093 81.8311 7.82717C82.267 7.93464 82.4085 6.66859 82.4911 6.41369C82.6823 5.77184 82.995 5.15648 83.4008 4.61894Z" fill="#E88E43"/>
<path d="M83.8831 2.68616C83.586 2.51379 83.1852 2.5667 82.9412 2.80648C82.8338 2.91077 82.7575 3.04437 82.6812 3.17796C82.3081 3.79522 81.8559 4.13235 81.2968 4.59394C81.6209 4.01859 81.8501 3.62788 82.052 3.00589C82.1989 2.5572 82.3245 2.06881 82.6769 1.75499C83.049 1.43046 83.621 1.38228 84.0705 1.60035C84.4283 1.78092 84.7214 2.14518 84.7139 2.54913C84.6995 3.05423 84.0928 3.59806 83.8746 4.0187C83.9483 3.80444 84.1999 3.48368 84.1826 3.25209C84.1653 3.02049 84.088 2.80086 83.8831 2.68616Z" fill="#CC7A3E"/>
<path d="M63.6405 6.5498C63.1222 6.06137 62.5257 5.64605 62.0758 5.09492C61.5314 4.41555 61.251 3.49577 61.4764 2.66109C61.7018 1.82641 62.4948 1.12536 63.3611 1.1588C64.62 1.20014 65.4382 2.58756 66.6641 2.86207C67.0288 2.94149 67.4205 2.91914 67.7761 3.02912C68.1316 3.13911 68.4832 3.44099 68.4647 3.81501C68.4518 4.04755 68.2973 4.25425 68.1419 4.43069C67.5691 5.09457 66.9237 5.69007 66.392 6.38294C65.6669 7.32409 65.7352 8.22023 65.344 9.22159C64.6732 8.36449 64.4806 7.35113 63.6405 6.5498Z" fill="#FF9F48"/>
<path d="M63.2877 5.55123C62.8705 5.07983 62.3441 4.65222 62.1941 4.04124C62.0901 3.61049 62.2154 3.11202 62.5586 2.82876C62.9019 2.54551 63.4654 2.54806 63.7676 2.88176C63.9762 3.11747 64.0369 3.44863 64.1666 3.73727C64.4692 4.40403 65.1964 4.81527 65.4493 5.50376C65.5706 5.84313 65.5723 6.21652 65.5532 6.57037C65.5209 7.14668 65.4384 7.72456 65.3153 8.29362C65.2893 8.42564 65.2434 8.56838 65.114 8.6128C64.696 8.75709 64.4357 7.51371 64.3371 7.25438C64.0964 6.63615 63.736 6.05194 63.2877 5.55123Z" fill="#E88E43"/>
<path d="M83.1762 9.0265C82.8032 8.03897 82.2612 7.11729 81.8088 6.16252C81.4104 5.32718 81.0817 4.46947 80.8027 3.59002C80.6685 3.16023 80.5437 2.70995 80.2315 2.37656C79.7841 1.9061 79.0767 1.80712 78.4313 1.75667C76.6557 1.6003 74.8926 1.52427 73.1356 1.63982C71.3791 1.77554 69.6488 2.1022 67.9107 2.49977C67.2815 2.65067 66.5931 2.8337 66.2175 3.37029C65.9575 3.74178 65.8916 4.20812 65.8247 4.64421C65.6823 5.55703 65.4688 6.4519 65.1944 7.32848C64.8739 8.33772 64.4823 9.32899 64.2428 10.3559C64.0036 11.3928 63.9476 12.4947 64.3008 13.493C64.5767 14.2716 65.0903 14.9318 65.6426 15.5402C67.038 17.0509 68.7758 18.248 70.7177 18.8937C71.8972 19.2908 73.1504 19.4736 74.3961 19.4145C75.6299 19.2951 76.846 18.9341 77.9654 18.3742C79.798 17.4589 81.3529 16.0275 82.5173 14.3358C82.9793 13.6653 83.3988 12.9255 83.5548 12.1233C83.7745 11.1071 83.5595 10.0238 83.1762 9.0265Z" fill="#FFB85A"/>
<path d="M71.425 13.8453C71.0431 14.1802 70.806 14.6419 70.6295 15.1117C70.5548 15.2957 70.4908 15.4995 70.3441 15.6353C70.1588 15.8228 69.879 15.882 69.6186 15.9205C68.0057 16.1425 66.312 15.7111 64.9946 14.7632C65.6229 15.551 66.3002 16.2968 67.0453 16.9598C68.4734 18.2272 70.1741 19.2035 72.0191 19.6504C73.8743 20.097 75.8732 19.994 77.6097 19.2231C78.8205 18.6906 79.9119 17.8793 80.8798 16.981C82.1118 15.8423 83.2556 14.4541 83.4447 12.7828C82.6113 14.121 81.2234 15.1031 79.6954 15.4638C79.1159 15.5929 78.4425 15.614 78.0175 15.2135C77.7583 14.9693 77.6367 14.6198 77.4463 14.323C77.0753 13.7189 76.408 13.2957 75.7016 13.227C74.884 13.1416 74.079 13.4595 73.2636 13.4446C72.6194 13.4345 71.9441 13.3951 71.425 13.8453Z" fill="#FFD880"/>
<path d="M70.7856 16.2372C70.9511 16.3735 71.1259 16.4892 71.33 16.5738C71.1555 16.4681 70.9706 16.3526 70.7856 16.2372Z" fill="#442D27"/>
<path d="M70.6004 9.67245C70.7328 9.08291 70.8653 8.49337 70.8564 7.88807C70.8551 7.52476 70.7828 7.14349 70.5136 6.89959C70.3688 6.77292 70.1753 6.69823 69.9827 6.65379C69.1409 6.43791 68.2495 6.56674 67.4109 6.77466C67.1015 6.85499 66.7341 7.0078 66.6936 7.32194C66.6537 7.65626 67.0151 8.27072 67.3785 8.63278C68.3957 9.63043 69.6841 9.32769 69.9775 9.70203C70.2392 10.0269 69.9035 10.5522 69.7754 10.9599C69.4549 11.9691 69.2533 12.6012 69.2764 13.6602C69.2884 14.0434 69.3205 14.4259 69.4525 14.7851C69.6935 15.4135 70.2102 15.8515 70.7754 16.2274C70.2479 15.7695 69.934 15.0628 69.8416 14.3592C69.7221 13.4343 69.9346 12.5092 70.1377 11.6046C70.3088 10.9634 70.4598 10.3228 70.6004 9.67245Z" fill="#442D27"/>
<path d="M77.5217 15.7538C77.3855 15.9097 77.2189 16.0563 77.0309 16.1633C77.1981 16.0368 77.3651 15.9002 77.5217 15.7538Z" fill="#442D27"/>
<path d="M76.7941 9.23635C76.5754 8.67799 76.3664 8.10923 76.2872 7.50613C76.246 7.15417 76.2534 6.75022 76.4865 6.48051C76.6127 6.33525 76.7908 6.23884 76.9695 6.1626C77.7742 5.83462 78.6697 5.83688 79.5375 5.92073C79.8604 5.951 80.2459 6.04996 80.3163 6.37073C80.3967 6.69119 80.1358 7.3554 79.8265 7.75871C78.9566 8.89616 77.6449 8.77573 77.3962 9.18723C77.1761 9.54737 77.5832 10.0191 77.7661 10.3969C78.2285 11.3514 78.5189 11.9478 78.6425 13.0037C78.6846 13.386 78.7067 13.7688 78.6279 14.1447C78.4772 14.7954 78.0306 15.314 77.5215 15.7639C77.9778 15.2349 78.196 14.4913 78.184 13.7852C78.165 12.8572 77.8354 11.9692 77.4964 11.1018C77.2654 10.4731 77.0247 9.8549 76.7941 9.23635Z" fill="#442D27"/>
<path d="M75.4043 12.7316C75.1279 12.5788 74.7952 12.5589 74.483 12.5485C74.3621 12.5422 73.9198 12.5561 73.9198 12.5561C73.7194 12.5825 73.4788 12.6102 73.3589 12.6342C73.0489 12.6943 72.7288 12.7548 72.4731 12.9445C72.2175 13.1342 72.0781 13.5019 72.2276 13.7798C72.3238 13.9585 72.528 14.053 72.712 14.1482C73.0899 14.3281 73.4678 14.5081 73.8454 14.6779C73.8966 14.7066 73.999 14.7639 74.0694 14.7617L74.0697 14.7718C74.0794 14.7614 74.0895 14.7611 74.0992 14.7507C74.1193 14.7501 74.129 14.7397 74.1388 14.7293C74.1881 14.6975 74.2276 14.676 74.277 14.6442C74.6319 14.4111 74.977 14.1883 75.3319 13.9552C75.4993 13.8389 75.6868 13.722 75.7612 13.5279C75.8727 13.2317 75.6807 12.8845 75.4043 12.7316Z" fill="#442D27"/>
<path d="M73.7592 14.1662C73.7601 14.1964 73.7611 14.2267 73.762 14.257C73.7633 14.2974 73.7743 14.3273 73.7853 14.3573C73.7963 14.3873 73.8174 14.4169 73.8382 14.4365C73.8592 14.4661 73.8897 14.4753 73.9202 14.4844C73.951 14.5037 73.9812 14.5027 74.0215 14.5015C74.0416 14.5008 74.0715 14.4898 74.0916 14.4892C74.1315 14.4778 74.1712 14.4564 74.2101 14.4147C74.2196 14.3942 74.2391 14.3734 74.2488 14.363C74.2677 14.322 74.2865 14.281 74.2849 14.2305C74.284 14.2003 74.283 14.17 74.2821 14.1397C74.2808 14.0993 74.2698 14.0693 74.2588 14.0394C74.2478 14.0094 74.2267 13.9798 74.206 13.9602C74.1849 13.9306 74.1544 13.9214 74.1239 13.9123C74.0931 13.893 74.0629 13.894 74.0227 13.8952C74.0025 13.8958 73.9727 13.9069 73.9525 13.9075C73.9126 13.9189 73.873 13.9403 73.834 13.9819C73.8246 14.0025 73.8051 14.0233 73.7953 14.0337C73.7664 14.075 73.7576 14.1157 73.7592 14.1662Z" fill="#442D27"/>
<path d="M74.1656 16.2222C74.1892 16.0095 74.203 15.8072 74.2365 15.5942C74.2893 15.3504 74.3929 15.1251 74.4252 14.8717C74.4741 14.5068 74.444 14.1848 74.0862 14.0043C74.0145 13.9661 73.9348 13.9888 73.876 14.0411C73.6019 14.2818 73.6211 14.5739 73.7119 14.9041C73.7575 15.0743 73.8426 15.223 73.918 15.3822C74.0471 15.6506 74.0761 15.9323 74.1154 16.2238C74.1361 16.2433 74.1666 16.2525 74.1656 16.2222Z" fill="#442D27"/>
<path d="M72.2288 16.6966C72.8709 16.9592 73.4913 17.1719 74.1936 17.1095C74.9157 17.0365 75.5988 16.682 76.276 16.459C76.3557 16.4363 76.3114 16.3065 76.242 16.3389C75.6252 16.5601 74.9879 16.7718 74.3368 16.8628C73.6357 16.9655 72.9268 16.8161 72.2383 16.6762C72.2282 16.6765 72.2188 16.697 72.2288 16.6966Z" fill="#442D27"/>
<path d="M67.5027 7.79117C67.842 8.34575 68.4178 8.74155 69.0454 8.8632C69.2176 8.89819 69.4088 8.90229 69.5678 8.83676C69.7763 8.74949 69.9211 8.55319 70.0253 8.34807C70.1481 8.0919 70.2291 7.78658 70.1006 7.53828C70.0572 7.4387 69.9844 7.36024 69.9017 7.29218C69.5816 7.02968 69.1375 6.98303 68.7144 6.96599C68.5027 6.95243 68.2913 6.94895 68.0809 6.97573C67.9106 7.00124 67.6298 7.03022 67.5036 7.17547C67.3387 7.3724 67.3862 7.60305 67.5027 7.79117Z" fill="#DD7D26"/>
<path d="M70.1007 7.53826C70.0573 7.43869 69.9844 7.36022 69.9018 7.29216C69.7985 7.20456 69.6756 7.13775 69.5434 7.09143C69.616 7.1598 69.6888 7.23827 69.7319 7.32776C69.8604 7.57606 69.7797 7.89147 69.6566 8.13755C69.5524 8.34267 69.4177 8.53866 69.1991 8.62624C69.0301 8.69209 68.8485 8.67758 68.6767 8.65268C68.5046 8.6177 68.3419 8.56223 68.1788 8.49669C68.4358 8.67032 68.7417 8.80204 69.0455 8.86319C69.2176 8.89817 69.4089 8.90228 69.5678 8.83674C69.7764 8.74947 69.9212 8.55318 70.0254 8.34805C70.1485 8.10197 70.2295 7.79665 70.1007 7.53826Z" fill="#D36C20"/>
<path d="M68.7187 7.42005C68.6626 7.87599 68.6375 8.36124 68.7821 8.80081C68.9673 8.29036 69.1516 7.74966 69.0448 7.22817C69.0218 7.13806 68.9467 6.98901 68.8283 7.06337C68.7394 7.11661 68.7357 7.31859 68.7187 7.42005Z" fill="#442D27"/>
<path d="M79.6532 7.04755C79.4001 7.64086 78.8819 8.12136 78.2748 8.33212C78.1055 8.38789 77.9255 8.4238 77.7531 8.37873C77.5301 8.32515 77.3636 8.14869 77.2369 7.96089C77.0786 7.72361 76.9589 7.43466 77.0512 7.16936C77.0883 7.06727 77.1457 6.97463 77.2139 6.90185C77.4959 6.59023 77.9252 6.48596 78.3354 6.41256C78.5456 6.3757 78.7557 6.33885 78.9668 6.33224C79.1477 6.32658 79.4194 6.32817 79.5739 6.44445C79.7599 6.60011 79.7471 6.83265 79.6532 7.04755Z" fill="#DD7D26"/>
<path d="M79.5639 6.43465C79.4401 6.3376 79.2385 6.32372 79.0673 6.31899C79.0673 6.31899 79.0777 6.32876 79.0877 6.32844C79.2837 6.48379 79.2611 6.72673 79.177 6.93123C78.9239 7.52454 78.4057 8.00504 77.7986 8.2158C77.7188 8.23849 77.629 8.26149 77.5489 8.27409C77.6105 8.31253 77.6821 8.35066 77.7531 8.36862C77.9255 8.41369 78.1055 8.37778 78.2748 8.32202C78.8819 8.11125 79.4004 7.64083 79.6532 7.03744C79.7474 6.83263 79.7599 6.59001 79.5639 6.43465Z" fill="#D36C20"/>
<path d="M78.3997 6.84454C78.5245 7.29482 78.6094 7.75644 78.5331 8.21301C78.2768 7.73657 78.0194 7.22988 78.053 6.6939C78.0602 6.60284 78.1154 6.43962 78.2382 6.50643C78.33 6.54393 78.3667 6.75473 78.3997 6.84454Z" fill="#442D27"/>
<path d="M67.7987 7.26734C67.7399 7.3197 67.6912 7.37174 67.6733 7.44303C67.6554 7.51432 67.6579 7.59507 67.7101 7.65406C67.7522 7.71336 67.8434 7.73072 67.9025 7.68845C67.9519 7.65659 67.9704 7.6055 67.999 7.55408C68.0471 7.48185 68.1157 7.41908 68.1949 7.37619C68.2745 7.34338 68.3744 7.32005 68.4222 7.23772C68.4986 7.10398 68.2659 7.07085 68.1857 7.08346C68.0455 7.10806 67.9065 7.17303 67.7987 7.26734Z" fill="white"/>
<path d="M77.2073 7.32654C77.19 7.41802 77.1929 7.50886 77.2558 7.58772C77.3083 7.65681 77.4297 7.67322 77.4878 7.60067C77.5359 7.52844 77.5026 7.42844 77.5 7.34769C77.5073 7.25653 77.5554 7.1843 77.6035 7.11207C77.6519 7.04993 77.8383 6.89254 77.7952 6.80295C77.7628 6.73324 77.6635 6.77676 77.6138 6.79852C77.405 6.88589 77.2507 7.1029 77.2073 7.32654Z" fill="white"/>
<path d="M67.3521 6.19111C67.2642 6.27461 67.1678 6.40883 67.2514 6.50715C67.2931 6.5563 67.3735 6.55379 67.4339 6.5519C67.6945 6.52355 67.9537 6.44479 68.2131 6.37611C68.7819 6.2271 69.3633 6.15844 69.9469 6.16036C70.098 6.16573 70.2688 6.16038 70.3863 6.05577C70.5135 5.94077 70.5072 5.73911 70.4918 5.56801C70.4515 5.24629 70.3811 4.92552 70.2809 4.61578C70.2586 4.54582 70.2259 4.4661 70.1549 4.44814C70.1141 4.42923 70.0644 4.45097 70.0145 4.46263C69.0399 4.8262 68.1153 5.50109 67.3521 6.19111Z" fill="#FFD880"/>
<path d="M79.5692 5.32426C79.6719 5.3917 79.7866 5.51932 79.7093 5.62266C79.6707 5.67434 79.6007 5.68662 79.5303 5.68882C79.2693 5.70709 78.996 5.65508 78.7334 5.62293C78.158 5.5602 77.5647 5.56867 76.9839 5.6575C76.8338 5.68239 76.6635 5.7079 76.5401 5.62093C76.3962 5.5245 76.3698 5.32347 76.3745 5.15174C76.3644 4.82908 76.3945 4.50516 76.4447 4.18062C76.4525 4.10972 76.4802 4.02811 76.5496 3.99566C76.5891 3.97424 76.6397 3.98275 76.6903 3.99126C77.7033 4.21187 78.7163 4.75547 79.5692 5.32426Z" fill="#FFD880"/>
<path d="M70.4156 2.815C70.4592 2.92466 70.4919 3.00438 70.5849 3.08221C70.6886 3.1799 70.8104 3.21645 70.9424 3.2527C71.1148 3.29776 71.2775 3.35323 71.4685 3.34725C71.7298 3.33907 72.0053 3.13868 72.057 2.86455C72.1088 2.59042 71.9992 2.30116 71.7435 2.16786C71.5082 2.04401 71.2666 2.04148 71.0163 2.07959C70.826 2.10574 70.6466 2.16182 70.5314 2.337C70.4246 2.46146 70.3502 2.65556 70.4156 2.815Z" fill="#442D27"/>
<path d="M72.7703 3.47809C72.7901 3.46738 72.7204 3.48975 72.6902 3.49069C72.6403 3.50235 72.5806 3.5244 72.5414 3.55591C72.433 3.62995 72.3768 3.76292 72.33 3.8754C72.2076 4.14165 72.125 4.39656 72.1241 4.68929C72.1182 4.82068 72.2134 4.9691 72.3258 5.02614C72.4788 5.092 72.579 5.07877 72.7278 5.01355C72.8566 4.94896 72.9021 4.79614 72.9081 4.66475C72.9216 4.45238 72.9049 4.24094 72.9385 4.02794C72.9551 3.9164 72.9925 3.82439 72.9689 3.71411C72.9569 3.65392 72.9045 3.58491 72.8932 3.5449C72.8916 3.49448 72.83 3.45604 72.7703 3.47809Z" fill="#442D27"/>
<path d="M73.013 2.87501C73.1154 2.93236 73.2568 2.94812 73.3375 2.95569C73.3174 2.95632 73.4085 2.97365 73.4289 2.98311C73.4594 2.99225 73.4594 2.99225 73.4289 2.98311C73.4701 3.0121 73.5206 3.02061 73.5712 3.02912C73.7735 3.06316 73.9619 2.97652 74.0363 2.78242C74.1104 2.57824 74.0244 2.39926 73.8597 2.2833C73.7259 2.18656 73.5243 2.17268 73.3735 2.1774C73.1725 2.1837 73.0041 2.26971 72.8986 2.4345C72.7828 2.58952 72.8795 2.78835 73.013 2.87501Z" fill="#442D27"/>
<path d="M74.0298 4.48836C74.1614 4.51452 74.2714 4.49089 74.4008 4.44647C74.4108 4.44615 74.5597 4.38093 74.5 4.40299C74.4504 4.42473 74.5201 4.40236 74.5298 4.39196C74.5597 4.38093 74.5993 4.35951 74.6291 4.34848C74.669 4.33714 74.6985 4.31603 74.7277 4.28484C74.7868 4.24262 74.7865 4.23254 74.7375 4.27444C74.8848 4.15881 74.9896 3.97385 74.9233 3.78416C74.8577 3.61464 74.6921 3.46842 74.5014 3.48448C74.2907 3.50117 74.1123 3.5875 73.9763 3.74315C73.84 3.88872 73.7756 4.0825 73.8222 4.2829C73.825 4.37365 73.9283 4.46125 74.0298 4.48836Z" fill="#442D27"/>
<path d="M74.8935 2.51336C75.0201 2.70117 75.2742 2.78405 75.468 2.86882C75.6006 2.92523 75.7825 2.94982 75.9002 2.85529C75.91 2.8449 75.92 2.84458 75.9298 2.83418C75.8701 2.85624 75.8004 2.87861 75.7404 2.89058C75.7605 2.88995 75.7705 2.88963 75.7906 2.889C76.122 2.86854 76.241 2.49138 76.0324 2.25567C76.022 2.2459 76.0117 2.23614 76.001 2.21628C76.033 2.27584 76.0748 2.325 76.1068 2.38455C76.1065 2.37447 76.1062 2.36438 76.1059 2.3543C76.0814 2.21377 75.9265 2.08741 75.7949 2.06125C75.5822 2.01744 75.3709 2.01396 75.162 2.09115C75.0031 2.15668 74.7773 2.33533 74.8935 2.51336Z" fill="#442D27"/>
<path d="M76.9686 2.59982C76.9227 2.74256 76.9982 2.90168 77.0723 3.02048C77.1047 3.09012 77.1568 3.14904 77.209 3.20797C77.2507 3.25712 77.23 3.23759 77.2086 3.19788C77.2614 3.27698 77.334 3.34536 77.4157 3.38317C77.5994 3.46826 77.8507 3.46039 77.9964 3.29434C78.1519 3.1179 78.1452 2.90615 78.0485 2.70732C77.9624 2.52834 77.7064 2.38496 77.5145 2.36069C77.2914 2.30711 77.0515 2.35499 76.9686 2.59982Z" fill="#442D27"/>
<path d="M69.5175 4.33754C69.6074 4.31452 69.6791 4.35269 69.7687 4.31958C69.8583 4.28646 69.958 4.25303 70.0369 4.20004C70.1555 4.1256 70.2004 3.95243 70.1161 3.83382C70.0419 3.7149 69.8693 3.66979 69.751 3.75432C69.6523 3.81803 69.5646 3.91171 69.5074 4.01454C69.4596 4.09686 69.4728 4.19749 69.4452 4.27919C69.4361 4.30978 69.4773 4.3388 69.5175 4.33754Z" fill="#442D27"/>
<path d="M68.1041 3.53328C68.2552 3.53864 68.3959 3.53424 68.5457 3.49927C68.7355 3.45296 68.896 3.43784 69.0423 3.29196C69.1887 3.14608 69.1211 2.91605 68.9669 2.80986C68.7102 2.64631 68.2925 2.80069 68.1085 3.02849C68.0406 3.11136 67.964 3.23487 67.9775 3.34547C67.9898 3.41574 68.0234 3.52571 68.1041 3.53328Z" fill="#442D27"/>
<path d="M71.2153 5.85823C71.139 5.99183 71.2069 6.23194 71.281 6.35073C71.3768 6.51931 71.5022 6.66679 71.637 6.79378C71.8129 6.94976 72.0638 6.93181 72.23 6.77522C72.1408 6.81838 72.0613 6.85114 71.9721 6.89431C72.0023 6.89336 72.0224 6.89274 72.0528 6.90188C72.3249 6.91355 72.4058 6.60822 72.3091 6.40939C72.3091 6.40939 72.3091 6.40939 72.3094 6.41948C72.3022 6.51054 72.2953 6.61168 72.278 6.70306C72.278 6.70306 72.278 6.70306 72.2777 6.69298C72.3716 6.47809 72.3141 6.24775 72.1089 6.12296C71.955 6.02685 71.7904 5.91088 71.6274 5.84533C71.5256 5.80815 71.2916 5.72464 71.2153 5.85823Z" fill="#442D27"/>
<path d="M73.4869 5.47428C73.4122 5.65829 73.3164 5.81268 73.2721 6.00583C73.2188 6.22955 73.2166 6.48194 73.2336 6.70346C73.2525 6.98547 73.4812 7.22054 73.7727 7.21142C74.0843 7.20167 74.2576 6.95401 74.2789 6.67074C74.3015 6.4278 74.2522 6.13665 74.1447 5.91797C74.0473 5.69897 73.9028 5.58238 73.7369 5.42608C73.6647 5.36778 73.5239 5.37219 73.4869 5.47428Z" fill="#442D27"/>
<path d="M75.3323 5.61834C75.293 5.64985 75.233 5.66182 75.1837 5.69365C75.0948 5.74689 75.0373 5.83953 74.9796 5.92208C74.8741 6.08687 74.788 6.23086 74.7337 6.42433C74.6332 6.75045 75.1145 7.01799 75.3274 6.74891C75.4627 6.57309 75.5381 6.40925 75.5918 6.19561C75.609 6.10424 75.6266 6.02294 75.6238 5.9322C75.6109 5.84176 75.5487 5.78315 75.5361 5.7028C75.5226 5.5922 75.4101 5.53516 75.3323 5.61834Z" fill="#442D27"/>
<path d="M72.5097 8.32079C72.4136 8.4651 72.4708 8.68535 72.5258 8.83503C72.5695 8.94468 72.6326 9.03354 72.7159 9.12177C72.7677 9.17061 72.8192 9.20937 72.8802 9.22765C72.9314 9.25633 72.982 9.26484 73.0423 9.26295C72.9816 9.25476 72.9716 9.25507 73.0222 9.26358C73.1641 9.29951 73.3133 9.24437 73.4 9.12055C73.4967 8.9964 73.4819 8.84547 73.4175 8.71628C73.4524 8.86658 73.4524 8.86658 73.4276 8.71597C73.4166 8.68603 73.3952 8.64633 73.3842 8.61639C73.3522 8.55684 73.311 8.52785 73.2595 8.48909C73.2287 8.46987 73.2077 8.44025 73.1869 8.42071C73.0943 8.35296 73.0738 8.3435 73.1354 8.38195C73.125 8.37218 73.1046 8.36273 73.0943 8.35296C72.9086 8.20738 72.6733 8.08353 72.5097 8.32079Z" fill="#442D27"/>
<path d="M73.8748 8.2175C73.8771 8.28809 73.84 8.39017 73.8325 8.47115C73.8165 8.60286 73.7999 8.71441 73.8542 8.84391C73.9315 9.06354 74.2758 9.13351 74.3891 8.89782C74.4645 8.73398 74.4704 8.60258 74.4148 8.43274C74.3928 8.37287 74.3705 8.30292 74.3388 8.25345C74.307 8.20398 74.2555 8.16522 74.2235 8.10566C74.1082 7.95788 73.8692 8.03601 73.8748 8.2175Z" fill="#442D27"/>
<path d="M75.0267 9.35222C74.9689 9.43477 74.9005 9.49747 74.8527 9.57971C74.805 9.66195 74.7676 9.75395 74.73 9.83587C74.6549 10.0098 74.6019 10.2436 74.7275 10.4012C74.801 10.4998 74.9125 10.5266 75.0215 10.4727C75.3579 10.2906 75.2598 9.72845 75.2802 9.41493C75.2855 9.26337 75.0942 9.25927 75.0267 9.35222Z" fill="#442D27"/>
<path d="M73.2982 10.3752C73.2646 10.5882 73.2006 10.7921 73.2176 11.0136C73.2342 11.2251 73.4007 11.4015 73.6219 11.3946C73.8229 11.3883 74.0082 11.2008 74.0015 10.9891C73.9842 10.7575 73.9079 10.5681 73.8409 10.3583C73.7526 10.1087 73.3497 10.091 73.2982 10.3752Z" fill="#442D27"/>
<path d="M71.8648 10.2082C71.8783 10.3188 71.8921 10.4395 71.9056 10.5501C71.9305 10.7007 72.025 10.8289 72.129 10.9367C72.3785 11.1913 72.7999 10.8349 72.6095 10.5381C72.5461 10.4392 72.4933 10.3601 72.4003 10.2822C72.3378 10.2135 72.2863 10.1748 72.2435 10.0954C72.1474 9.91672 71.838 9.99705 71.8648 10.2082Z" fill="#442D27"/>
<path d="M73.7549 12.1075C73.7442 12.0877 73.7228 12.0479 73.7018 12.0183C73.714 12.0886 73.7559 12.1378 73.798 12.1971C73.7769 12.1675 73.7772 12.1776 73.798 12.1971C73.8194 12.2369 73.8505 12.2662 73.8813 12.2855C73.9436 12.3441 74.0254 12.382 74.1065 12.3997C74.1675 12.418 74.2379 12.4157 74.2977 12.3937C74.2474 12.3952 74.2474 12.3952 74.2876 12.394C74.5093 12.3971 74.6816 12.1088 74.5347 11.9215C74.5136 11.8918 74.524 11.9016 74.5249 11.9319C74.5127 11.8615 74.4501 11.7928 74.3881 11.7442C74.3057 11.6861 74.2039 11.6489 74.1032 11.6521C73.9724 11.6562 73.8127 11.7016 73.7354 11.805C73.7649 11.7839 73.7945 11.7628 73.8244 11.7517C73.8045 11.7625 73.7844 11.7631 73.7643 11.7637C73.6244 11.7984 73.6316 12.0306 73.7549 12.1075Z" fill="#442D27"/>
<path d="M75.0418 11.7445C75.1009 11.7022 75.1701 11.6597 75.2295 11.6275C75.2691 11.606 75.299 11.595 75.3383 11.5635C75.3874 11.5215 75.416 11.4701 75.4443 11.4086C75.492 11.3263 75.4788 11.2256 75.4162 11.1569C75.3533 11.078 75.2621 11.0607 75.1722 11.0837C75.1222 11.0953 75.0722 11.107 75.0229 11.1389C74.9634 11.171 74.9254 11.243 74.8867 11.2947C74.8484 11.3565 74.8104 11.4284 74.7723 11.5003C74.7069 11.664 74.884 11.8505 75.0418 11.7445Z" fill="#442D27"/>
<path d="M65.5357 9.22539C65.6848 9.17025 65.7913 9.03571 65.8984 8.92134C65.937 8.86966 65.986 8.82776 66.0246 8.77608C66.1509 8.63083 66.1757 8.45847 66.1295 8.26815C66.132 8.34882 66.1345 8.42948 66.137 8.51015C66.1367 8.50007 66.1462 8.47958 66.1458 8.4695C66.207 8.17489 65.924 7.81031 65.5964 7.95177C65.6165 7.95114 65.6366 7.95051 65.6567 7.94988C65.4858 7.95523 65.3178 8.05133 65.2421 8.20509C65.1187 8.44109 64.9806 8.84913 65.1691 9.08547C65.2429 9.19418 65.3965 9.28021 65.5357 9.22539Z" fill="#442D27"/>
<path d="M66.1668 6.57185C66.2369 6.55955 66.3076 6.56744 66.3768 6.52486C66.446 6.48228 66.4642 6.42109 66.5126 6.35895C66.5604 6.27662 66.506 6.14698 66.4148 6.12962C66.3239 6.12236 66.2327 6.10501 66.1538 6.158C66.0749 6.21099 66.0473 6.29268 66.0196 6.37438C65.9926 6.47626 66.0665 6.58509 66.1668 6.57185Z" fill="#442D27"/>
<path d="M66.2032 5.16732C66.1256 5.26068 66.1004 5.42313 66.1344 5.54331C66.1464 5.60356 66.1788 5.67327 66.2102 5.71271C66.2423 5.77232 66.2939 5.81113 66.3555 5.84961C66.448 5.90734 66.5382 5.89441 66.6281 5.87139C66.6983 5.85909 66.7567 5.79664 66.7954 5.74491C66.8338 5.68309 66.8621 5.62158 66.8595 5.54083C66.8548 5.38942 66.7601 5.26103 66.6274 5.20456C66.607 5.1951 66.5865 5.18563 66.5664 5.18626C66.6174 5.20488 66.6277 5.21465 66.5969 5.19541C66.5661 5.17617 66.5252 5.15724 66.4947 5.14809C66.4035 5.13074 66.2611 5.08468 66.2032 5.16732Z" fill="#442D27"/>
<path d="M80.0031 4.72545C80.0361 4.81535 80.0097 4.6141 80.0151 4.7857C80.0163 4.82608 80.0273 4.85604 80.0487 4.89579C80.0811 4.9655 80.1132 5.02512 80.1654 5.08411C80.2072 5.13332 80.2487 5.17244 80.2906 5.22165C80.3428 5.28064 80.4145 5.31881 80.4862 5.35698C80.5988 5.41408 80.7289 5.3898 80.817 5.30621C80.9047 5.21253 80.9006 5.08131 80.8468 4.97185C80.7716 4.82264 80.6578 4.72517 80.5144 4.64883C80.4527 4.61034 80.392 4.60214 80.321 4.58415C80.2704 4.57563 80.2197 4.56711 80.1697 4.57878C80.1499 4.58951 80.1399 4.58982 80.1201 4.60055C80.1499 4.58951 80.1499 4.58951 80.1097 4.59077C80.0389 4.58288 79.9805 4.64533 80.0031 4.72545Z" fill="#442D27"/>
<path d="M80.9691 6.33014C80.791 6.42655 80.6868 6.63167 80.5913 6.79615C80.4861 6.97102 80.3611 7.15661 80.4183 7.37686C80.4416 7.47706 80.5641 7.53379 80.6536 7.50071C80.8625 7.42352 80.9469 7.22911 81.0213 7.03501C81.0964 6.86108 81.2104 6.64556 81.1843 6.45461C81.1704 6.33393 81.068 6.27658 80.9691 6.33014Z" fill="#442D27"/>
<path d="M81.1475 7.21294C81.1488 7.25331 81.14 7.294 81.1413 7.33438C81.1331 7.39526 81.1551 7.45519 81.1671 7.51544C81.168 7.54572 81.1784 7.5555 81.1674 7.52553C81.1794 7.58578 81.191 7.63594 81.2127 7.68578C81.2659 7.77505 81.3379 7.82331 81.4394 7.85045C81.5715 7.88673 81.7001 7.81198 81.7674 7.70883C81.8632 7.55427 81.7975 7.38457 81.7028 7.25618C81.6292 7.15744 81.5469 7.0994 81.444 7.03189C81.3003 6.94546 81.1535 7.0814 81.1475 7.21294Z" fill="#442D27"/>
<path d="M66.4703 8.87324C66.4832 8.96377 66.487 9.0849 66.5398 9.16408C66.6037 9.27322 66.7075 9.37101 66.8295 9.40761C67.0329 9.47196 67.1948 9.17389 67.0294 9.03761C66.9882 9.00859 66.9574 8.98935 66.9165 8.97042C66.947 8.97957 66.9165 8.97042 66.8961 8.96095C66.8652 8.94171 66.8244 8.92278 66.7936 8.90354C66.7319 8.86505 66.6612 8.85716 66.5992 8.80858C66.558 8.77956 66.458 8.8029 66.4703 8.87324Z" fill="#442D27"/>
<path d="M62.6452 3.67387C62.9209 3.48356 63.3236 3.49114 63.5922 3.71488C63.7059 3.81225 63.8005 3.9405 63.8847 4.05898C64.3154 4.64098 64.7875 4.93909 65.3841 5.35441C65.0149 4.81085 64.752 4.44564 64.5015 3.83781C64.3168 3.3995 64.1512 2.93031 63.7701 2.64954C63.3687 2.35932 62.7951 2.35709 62.3705 2.61261C62.0247 2.8152 61.7653 3.20685 61.8081 3.60923C61.8641 4.11212 62.5131 4.59646 62.7673 5.00232C62.6802 4.79309 62.3994 4.49909 62.4022 4.26686C62.3946 4.02487 62.448 3.80115 62.6452 3.67387Z" fill="#CC7A3E"/>
<path d="M68.4995 24.5244C67.7737 27.0502 67.0846 29.1408 68.8165 31.1153C69.578 31.9796 70.5358 32.6864 71.1402 33.6768C72.1271 35.3113 71.9512 37.406 71.3744 39.2307C70.7977 41.0554 69.8648 42.75 69.4099 44.6112C69.3204 44.9673 69.2621 45.3526 69.433 45.6703C69.5615 45.9186 69.8178 46.072 70.0537 46.216C71.0586 46.8204 68.8757 49.0789 69.8906 49.683C70.6392 50.134 74.2469 50.0009 75.0978 50.1862C76.5565 50.5039 79.2104 50.7539 80.368 49.8093C81.5256 48.8647 82.64 46.2157 83.333 44.892C85.7053 40.3264 85.6558 34.5649 85.1132 29.4445C85.0113 28.4384 84.8384 27.4143 84.3775 26.5103C83.9269 25.616 83.2201 24.8913 82.6119 24.1029C81.3851 22.5163 80.5217 20.6459 80.1181 18.6803C80.0241 18.2492 79.8972 17.7284 79.48 17.5799C79.1851 17.4781 78.8672 17.6092 78.5691 17.7295C76.6913 18.4847 74.5717 18.5914 72.623 18.0469C71.1614 17.6384 69.4246 16.7945 68.9195 18.6573C68.4307 20.3985 68.9987 22.793 68.4995 24.5244Z" fill="#FFD880"/>
<path d="M89.43 44.893C89.4693 44.8615 89.5371 45.1016 89.5764 45.0701C89.5013 44.921 89.4073 44.49 89.3322 44.3409C87.4194 40.4444 87.529 35.9092 86.8217 31.6317C86.363 28.8705 85.5541 26.1707 84.4176 23.6124C84.0066 22.6967 82.495 21.331 81.3308 20.4591C80.4346 19.7907 83.0072 27.0882 79.0427 33.5002C78.1427 34.9615 77.1995 37.2923 78.0013 38.8013C78.8131 40.31 82.8885 44.5123 83.8132 46.4112C85.7695 46.8748 87.8898 46.1524 89.43 44.893Z" fill="#FFB85A"/>
<path d="M53.8259 37.8623C51.7669 39.2591 49.5284 37.8152 48.5538 40.1065C47.5795 42.4079 48.1099 45.5302 50.3194 46.6924C51.5162 47.3211 52.9234 47.2771 54.2746 47.3761C56.9567 47.5646 59.5877 48.3705 61.9236 49.7104C62.6611 50.1314 63.3805 50.6135 64.2019 50.8199C65.0233 51.0264 66.0045 50.8745 66.5371 50.2119C66.8763 49.7976 66.9899 49.249 67.1042 48.7206C67.6089 46.5247 68.4278 44.3998 69.5435 42.4371C70.3059 41.0809 71.2389 39.7094 71.2607 38.1544C71.288 36.1349 69.8596 34.8575 68.0996 34.2363C66.4615 33.6517 69.2387 42.0227 67.6831 42.465C60.8118 44.406 56.4365 36.085 53.8259 37.8623Z" fill="#FFD880"/>
<path d="M63.6582 28.3094C62.9315 31.4509 63.2254 34.732 63.5271 37.9422C63.8451 41.3538 64.1632 44.7654 64.4812 48.1769C64.6332 49.8173 64.8816 51.6465 66.152 52.6968C67.2775 53.6204 68.848 53.652 70.2841 53.8896C71.7202 54.1273 73.8059 54.5464 73.6564 54.5915C71.5326 55.203 73.6373 56.8731 73.844 57.0483C73.9991 57.1848 74.2306 57.1876 74.4317 57.1813C75.9001 57.1656 77.3521 56.9486 78.7576 56.5312C79.0768 56.4404 79.4053 56.3292 79.6389 56.0797C79.8434 55.8613 79.9451 55.5756 79.9963 55.2813C80.4511 53.097 79.004 50.9017 77.1635 49.6371C75.3233 48.3826 70.8358 48.3717 70.6872 47.801C70.5831 47.3703 72.3327 41.5524 73.0844 39.8535C73.677 38.5329 73.8715 37.0331 73.6454 35.5969C73.3452 33.7189 72.3671 32.0438 71.4004 30.4087C70.7205 29.2592 70.041 28.1198 69.3611 26.9703C68.8198 26.0687 68.8398 21.5666 67.7628 21.8729C66.2471 22.3038 63.9856 26.8761 63.6582 28.3094Z" fill="#FFB85A"/>
<path d="M63.7415 46.7265C63.8256 48.4498 63.9324 50.2531 64.7744 51.7608C65.1369 52.4156 65.6588 53.015 66.3332 53.3471C66.8643 53.603 67.4498 53.6654 68.0356 53.7379C69.8329 53.9441 71.6306 54.1603 73.4279 54.3665C72.7975 54.4771 72.4285 55.2254 72.5788 55.8465C72.729 56.4675 73.2866 56.9244 73.8862 57.1176C74.4959 57.3105 75.1489 57.28 75.7806 57.2097C76.9437 57.0825 78.0923 56.8144 79.1972 56.4367C78.8084 56.5498 78.4095 56.6632 78.0153 56.6049C77.6211 56.5465 77.2199 56.2664 77.1671 55.8643C76.7585 56.3111 76.174 56.6019 75.5716 56.641C75.4111 56.6561 75.2396 56.6413 75.1158 56.5442C75.0024 56.4569 74.9481 56.3274 74.9038 56.1976C74.6596 55.4684 74.7242 54.6388 75.0954 53.9611C73.6982 53.6818 72.291 53.4029 70.8942 53.1337C69.7706 52.9166 68.6159 52.6701 67.6795 52.003C66.8047 51.3743 66.2212 50.4136 65.798 49.4276C64.9512 47.4456 64.7018 45.2632 64.4637 43.1209C64.0382 39.1677 63.6424 35.2034 63.1267 31.2631C62.8763 35.1567 63.3635 39.1484 63.5556 43.0383C63.6243 44.2675 63.6829 45.497 63.7415 46.7265Z" fill="#EA8F44"/>
<path d="M79.8337 48.4837C79.068 49.093 73.73 51.4805 71.6114 51.9405C70.0426 52.2823 68.431 52.5447 67.0051 53.2756C65.5792 54.0066 64.3223 55.3176 64.141 56.918C64.0855 57.3941 64.1421 57.9172 64.455 58.2707C64.7786 58.6441 65.2953 58.7592 65.79 58.8143C66.9412 58.9499 68.1951 58.8299 69.1291 58.1345C69.7487 57.6811 70.1906 57.0113 70.7263 56.4495C72.1681 54.9409 74.2706 54.2897 76.2745 53.7021C78.8562 52.935 81.4283 52.1782 84.0101 51.4111C85.0867 51.0948 86.1832 50.7678 87.1622 50.2224C88.1411 49.677 89.0315 48.872 89.4616 47.8291C89.9292 46.6941 89.8269 45.3549 89.2598 44.2726C88.6924 43.1801 87.6903 42.3435 86.5591 41.8843C85.1629 41.3123 83.2313 41.9582 83.2944 43.9748C83.3487 46.0321 81.5711 47.097 79.8337 48.4837Z" fill="#FFB85A"/>
<path d="M68.9129 58.6157C70.2295 57.9285 71.1459 56.6685 72.3566 55.8131C73.4395 55.0525 74.7348 54.6486 75.9996 54.2356C78.7987 53.3405 81.5862 52.3954 84.3526 51.4206C85.7359 50.9332 87.2903 50.4506 88.3552 49.4382C89.4202 48.4259 90.2325 46.7351 89.6468 45.3808C89.8423 46.1619 89.2054 47.0297 88.7017 47.651C88.188 48.2727 87.4976 48.7182 86.8057 49.1133C83.9693 50.7463 80.8665 51.9031 77.6559 52.5083C75.6055 52.8954 73.4188 53.1052 71.737 54.3387C70.2223 55.4459 68.9434 58.3018 67.5399 58.1439C67.2997 58.1817 67.3567 57.433 67.3096 57.2125C67.2462 57.7595 66.6419 58.061 66.1036 58.2191C65.7848 58.3199 65.4352 58.4015 65.1289 58.2597C64.8227 58.1179 64.9731 57.7801 64.9225 57.4487C64.849 57.673 64.6329 57.8412 64.4014 57.8384C64.3914 57.8387 63.9946 57.3768 64.2012 56.583C62.9675 59.2761 67.6259 59.2817 68.9129 58.6157Z" fill="#EA8F44"/>
<path d="M70.7472 47.7991C73.0424 48.1613 75.4192 48.5613 77.332 49.8841C76.7308 49.9635 76.1331 50.1538 75.5992 50.4531C73.4709 48.9957 70.8139 48.3219 68.2468 48.594C68.9852 48.3993 69.7613 48.1227 70.2151 47.513C70.5436 47.0788 70.6572 46.5302 70.7916 46.0012C71.1036 44.7197 71.507 43.4657 72.0018 42.239C71.8885 42.7977 70.7877 47.808 70.7472 47.7991Z" fill="#EA8F44"/>
<path d="M82.8575 45.1189C81.8918 46.4108 80.8853 47.6837 79.6498 48.7115C80.4748 48.07 81.2996 47.4184 82.1246 46.7769C82.9299 46.1461 83.7452 45.515 84.6563 45.0525C83.7171 44.6176 82.7866 44.1421 81.9523 43.5223C81.1591 42.9314 80.7227 42.1679 79.911 41.3051C80.2562 41.7283 80.5817 42.1622 80.9471 42.5848C81.6363 43.3909 82.9441 44.9951 82.8575 45.1189Z" fill="#EA8F44"/>
<path d="M35.4003 43.8489C38.6806 44.8261 42.1741 45.2215 45.5452 44.6012C48.9063 43.9813 52.1337 42.3057 54.294 39.6442C51.8235 40.751 49.3429 41.8582 46.7853 42.7557C45.4916 43.2101 44.1561 43.6152 42.7904 43.6983C41.6556 43.7641 40.5141 43.6182 39.3834 43.4921C37.2333 43.2667 35.0764 43.1424 32.9129 43.1294C32.4801 43.1227 31.9411 43.2607 31.5155 43.163C32.8174 42.9709 34.1615 43.4839 35.4003 43.8489Z" fill="#EA8F44"/>
<path d="M41.1998 44.3133C44.7743 44.7263 48.4846 43.6917 51.3335 41.4931C52.8853 40.2838 54.1857 38.7595 55.8006 37.6391C54.3092 37.2416 52.7102 37.2614 51.2469 37.7614C48.868 38.5827 47.291 41.2361 44.8094 41.667C37.9949 42.8492 33.6972 41.5102 27.0499 43.5349C28.5761 43.4367 30.4867 43.4072 32.0295 43.1974C35.2151 42.7545 38.0899 43.9565 41.1998 44.3133Z" fill="#FFD880"/>
<path d="M75.0352 19.2532C75.7755 19.119 76.4926 18.8846 77.1987 18.6203C78.3824 18.1896 79.5653 17.7287 80.694 17.1483C80.9033 17.7272 81.1123 18.2959 81.3219 18.8849C81.2355 18.6958 80.9719 18.6334 80.7709 18.6397C79.4451 18.7115 78.2931 19.5146 77.1477 20.2065C76.012 20.888 74.6728 21.4951 73.3937 21.1314C72.9675 21.0135 72.5883 20.7933 72.1991 20.5733C70.9084 19.8365 69.6076 19.1001 68.4999 18.1053C69.5488 18.5065 70.5904 18.9987 71.6938 19.2165C72.8485 19.4629 73.891 19.3395 75.0352 19.2532Z" fill="#F2AC57"/>
<path d="M65.0792 26.4583C64.5707 26.6054 64.2739 27.0891 64.0874 27.5592C63.9757 27.8453 63.9232 28.0993 64.0034 28.4097C64.0842 28.7402 64.3534 28.9841 64.6587 29.0957C65.2596 29.3292 65.9631 28.9842 66.1041 28.3439C66.1389 28.1712 66.1942 28.008 66.219 27.8357C66.245 27.7036 66.2607 27.5618 66.2563 27.4207C66.2493 27.1989 66.184 27.0394 66.0872 26.8406C65.9248 26.4722 65.4181 26.3569 65.0792 26.4583Z" fill="#442D27"/>
<path d="M63.819 30.8882C63.5423 31.0482 63.373 31.427 63.3222 31.7314C63.2541 32.1271 63.2193 32.6228 63.4813 32.9577C63.8693 33.4603 64.6253 33.5073 64.9588 32.9115C65.2069 32.4798 65.0975 31.8777 64.9027 31.4397C64.7098 31.0622 64.2935 30.621 63.819 30.8882Z" fill="#442D27"/>
<path d="M65.0979 34.4514C64.962 34.93 64.9652 35.3538 65.0507 35.8356C65.1362 36.3174 65.1664 36.9624 65.5886 37.2721C65.9904 37.5724 66.4895 37.4458 66.6452 36.9565C66.8104 36.4466 66.472 35.9223 66.2565 35.4648C66.0513 35.017 65.7987 34.6616 65.4167 34.3506C65.3033 34.2633 65.1434 34.2985 65.0979 34.4514Z" fill="#442D27"/>
<path d="M65.9429 31.8714C65.9568 31.9921 65.9806 32.1124 66.0045 32.2328C66.002 32.1521 65.9998 32.0816 65.9973 32.0009C65.9791 32.062 65.9709 32.1228 65.9728 32.1833C66.0011 32.1219 66.0017 32.1421 65.9841 32.2234C65.9756 32.2741 65.9772 32.3245 65.9888 32.3746C66.0024 32.4852 66.046 32.5949 66.0897 32.7045C66.1981 32.9534 66.3775 33.2203 66.5745 33.4059C66.8644 33.6694 67.3579 33.6842 67.6198 33.3732C67.8723 33.0827 67.8973 32.5975 67.587 32.3246C67.5248 32.266 67.4528 32.2178 67.3809 32.1695C67.3809 32.1695 67.2367 32.063 67.2782 32.1021C67.3193 32.1311 67.2163 32.0536 67.2059 32.0438C67.1337 31.9855 67.0617 31.9373 66.9798 31.8894C66.877 31.822 66.785 31.7744 66.6729 31.7274C66.7542 31.7552 66.5095 31.6518 66.5814 31.7C66.6226 31.729 66.4885 31.6222 66.4885 31.6222C66.2921 31.4567 65.8929 31.5601 65.9429 31.8714Z" fill="#442D27"/>
<path d="M68.2236 34.9894C68.2528 34.9582 68.2334 34.979 68.283 34.9573C68.3128 34.9462 68.3329 34.9456 68.2927 34.9469C68.3229 34.9459 68.3628 34.9346 68.3929 34.9336C68.5735 34.9179 68.7347 34.9229 68.892 34.807C69.1772 34.5962 69.1749 34.2026 68.8671 34.0104C68.3849 33.7126 67.9069 34.1919 67.7084 34.6018C67.6425 34.7452 67.6683 34.926 67.8021 35.0228C67.946 35.1192 68.0961 35.0943 68.2236 34.9894Z" fill="#442D27"/>
<path d="M67.5048 30.3489C67.5743 30.3165 67.6434 30.2739 67.7027 30.2418C67.633 30.2642 67.5532 30.2869 67.4835 30.3092C67.5837 30.296 67.6534 30.2736 67.7426 30.2305C67.7822 30.209 67.8217 30.1876 67.8613 30.1662C67.97 30.1022 68.0485 30.0392 68.1465 29.9554C68.4012 29.7355 68.3069 29.2943 68.06 29.1204C67.9365 29.0334 67.7946 28.9975 67.6444 29.0224C67.4641 29.0482 67.3467 29.1528 67.2408 29.3075C67.1834 29.4002 67.1363 29.5026 67.0992 29.6047C67.071 29.6661 67.0528 29.7272 67.0449 29.7981C67.0371 29.869 67.0374 29.8791 67.0358 29.8287C67.0349 29.7984 67.0346 29.7884 67.0255 29.8189C66.9962 29.8501 66.9887 29.9311 66.9696 29.962C66.9234 30.0946 67.0089 30.2534 67.1119 30.3309C67.2253 30.4182 67.3761 30.4135 67.5048 30.3489Z" fill="#442D27"/>
<path d="M66.6801 24.8842C66.7884 24.8101 66.9081 24.7761 67.0058 24.6822C67.1132 24.5779 67.1999 24.4541 67.2872 24.3504C67.4812 24.1223 67.7045 23.863 67.837 23.5964C68.0732 23.1046 67.4549 22.6395 67.0649 23.0352C66.8212 23.2851 66.6711 23.6329 66.5603 23.9493C66.5144 24.092 66.4686 24.2347 66.4529 24.3765C66.4281 24.5489 66.4819 24.6582 66.5171 24.8186C66.5193 24.8892 66.6207 24.9163 66.6801 24.8842Z" fill="#442D27"/>
<path d="M66.7915 26.8488C66.9175 27.0165 67.051 27.1031 67.2448 27.1879C67.4895 27.2913 67.7342 27.3946 68.0021 27.2752C68.2304 27.1772 68.4069 27.0304 68.4597 26.7865C68.5127 26.5527 68.4439 26.2824 68.268 26.1264C68.061 25.9411 67.8276 25.8778 67.5568 25.9064C67.3561 25.9228 67.1551 25.9291 66.988 26.0554C66.7418 26.2246 66.592 26.5826 66.7915 26.8488Z" fill="#442D27"/>
<path d="M63.5982 36.0425C63.3869 36.362 63.3376 36.7168 63.3794 37.0889C63.4222 37.4913 63.4449 37.8943 63.8043 38.1253C64.0405 38.2794 64.2961 38.0897 64.3797 37.8651C64.5002 37.5383 64.2784 37.2021 64.198 36.8816C64.1181 36.5814 64.0185 36.2918 63.8492 36.0246C63.7961 35.9354 63.6657 35.9496 63.5982 36.0425Z" fill="#442D27"/>
<path d="M63.4072 34.4337C63.3903 34.5351 63.3636 34.647 63.3768 34.7475C63.3803 34.8584 63.4139 34.9684 63.4774 35.0673C63.5405 35.1562 63.6134 35.2346 63.7158 35.292C63.8898 35.3875 64.1012 35.391 64.2796 35.3046C64.458 35.2183 64.5843 35.073 64.6285 34.8799C64.6822 34.6663 64.614 34.4161 64.4484 34.2699C64.3555 34.192 64.2735 34.1441 64.1714 34.0969C64.0894 34.049 63.9983 34.0316 63.9078 34.0345C63.8375 34.0367 63.7674 34.0489 63.7081 34.0811C63.5595 34.1564 63.4427 34.2811 63.4072 34.4337Z" fill="#442D27"/>
<path d="M65.23 40.9168C65.1628 41.3428 65.1038 41.708 65.178 42.1498C65.2528 42.6117 65.3877 43.0617 65.5325 43.5113C65.7098 44.0306 66.2714 44.2957 66.7774 44.0679C67.3129 43.819 67.4061 43.2609 67.1692 42.7637C66.986 42.3758 66.8025 41.9778 66.5503 41.6325C66.3077 41.2767 66.019 41.0536 65.6889 40.7914C65.534 40.6651 65.2632 40.6937 65.23 40.9168Z" fill="#442D27"/>
<path d="M64.1058 41.3355C63.6447 41.7133 63.5911 42.2499 63.5384 42.8168C63.5008 43.2217 63.9337 43.5513 64.3056 43.5396C64.6875 43.5277 65.0587 43.1729 65.026 42.7702C64.9785 42.2166 64.9118 41.6938 64.4676 41.3242C64.3439 41.2272 64.2135 41.2413 64.1058 41.3355Z" fill="#442D27"/>
<path d="M66.5425 39.4627C66.5717 39.7545 66.7891 39.9496 67.0351 40.0933C67.3215 40.2458 67.6592 40.427 67.9865 40.2754C68.1749 40.1888 68.3128 40.0936 68.3872 39.8996C68.4522 39.7259 68.455 39.4937 68.3394 39.3358C68.1927 39.1487 68.0476 39.0119 67.8048 38.969C67.6329 38.9441 67.4417 38.94 67.2705 38.9353C66.9991 38.9438 66.5006 39.0906 66.5425 39.4627Z" fill="#442D27"/>
<path d="M70.156 38.2293C70.1657 38.2189 70.1755 38.2085 70.195 38.1877C70.2242 38.1565 70.2245 38.1666 70.1755 38.2085C70.0753 38.2217 69.9654 38.2454 69.8652 38.2586C69.987 38.2951 70.1168 38.2608 70.2254 38.1968C70.2452 38.1861 70.275 38.1751 70.2945 38.1543C70.2747 38.165 70.2549 38.1757 70.2352 38.1865C70.275 38.1751 70.265 38.1754 70.2151 38.1871C70.1149 38.2003 70.205 38.1874 70.2251 38.1868C70.2851 38.1748 70.3454 38.1729 70.4051 38.1509C70.5348 38.1165 70.623 38.0431 70.721 37.9593C70.8583 37.844 70.8912 37.6108 70.8356 37.441C70.78 37.2711 70.6345 37.1243 70.4624 37.0893C70.1279 37.0089 69.8716 37.1784 69.6989 37.4463C69.584 37.6315 69.4712 37.8874 69.6283 38.0843C69.606 38.0144 69.5837 37.9444 69.5614 37.8745C69.5607 37.8543 69.5702 37.8338 69.5695 37.8137C69.5607 37.8543 69.562 37.8946 69.563 37.9249C69.5636 37.945 69.5642 37.9652 69.5648 37.9854C69.5545 38.2986 69.9519 38.4577 70.156 38.2293Z" fill="#442D27"/>
<path d="M67.7073 43.8873C67.7029 44.0692 67.648 44.2425 67.6637 44.4236C67.6807 44.6452 67.6883 44.8872 67.8249 45.0746C68.1294 45.4789 68.7582 45.3179 68.7616 44.7829C68.7643 44.5507 68.6374 44.3528 68.5209 44.1647C68.425 43.9961 68.2812 43.8997 68.1659 43.7519C68.0185 43.5445 67.7192 43.6246 67.7073 43.8873Z" fill="#442D27"/>
<path d="M64.5995 47.1337C64.591 47.1844 64.5926 47.2348 64.5838 47.2755C64.5841 47.2855 64.5464 47.3675 64.5747 47.306C64.5382 47.4283 64.5314 47.5294 64.5351 47.6504C64.5543 47.9425 64.7246 48.24 64.9806 48.3834C65.1854 48.4981 65.476 48.4587 65.6314 48.2822C65.7869 48.1058 65.8383 47.8216 65.6913 47.6243C65.565 47.4466 65.4004 47.3306 65.2164 47.2355C65.0731 47.1592 65.0028 47.1614 64.9189 47.053C64.8243 46.9248 64.6255 47.0016 64.5995 47.1337Z" fill="#442D27"/>
<path d="M82.8507 31.7257C82.8709 31.7251 82.891 31.7245 82.9114 31.7339C82.8099 31.7068 82.7088 31.6898 82.6174 31.6624C82.7298 31.7194 82.8517 31.756 82.9723 31.7522C83.1526 31.7264 83.2025 31.7147 83.1124 31.7276C83.0222 31.7406 83.0722 31.7289 83.2726 31.7024C83.4221 31.6574 83.6002 31.561 83.728 31.4661C83.8756 31.3606 84.0028 31.2456 84.1294 31.1104C84.3046 30.9233 84.4098 30.7484 84.5027 30.5033C84.6139 30.197 84.421 29.8195 84.1841 29.6452C83.9369 29.4612 83.5329 29.4133 83.2676 29.6134C83.1199 29.7189 83.0223 29.8128 82.9165 29.9675C82.8781 30.0293 82.8684 30.0397 82.9168 29.9776C82.8295 30.0813 82.7525 30.1947 82.6652 30.2983C82.5591 30.443 82.4429 30.5879 82.3776 30.7514C82.3405 30.8535 82.3308 30.8639 82.3587 30.7924C82.3402 30.8434 82.3217 30.8945 82.2934 30.9559C82.2674 31.088 82.2809 31.1986 82.3051 31.329C82.3019 31.2282 82.2985 31.1173 82.2953 31.0164C82.2859 31.0369 82.2865 31.0571 82.2768 31.0675C82.2175 31.4226 82.5081 31.7062 82.8507 31.7257Z" fill="#442D27"/>
<path d="M83.3919 28.4488C83.5298 28.3536 83.6181 28.2802 83.7145 28.146C83.6561 28.2084 83.6074 28.2603 83.549 28.3227C83.8247 28.1324 83.9566 27.8457 84.0574 27.5297C84.0941 27.4175 84.1205 27.2955 84.1368 27.1739C84.1766 26.8396 84.089 26.6102 83.8703 26.3748C83.6206 26.1101 83.0872 26.1066 82.8552 26.4066C82.7101 26.5928 82.5948 26.768 82.6027 27.0201C82.6087 27.2117 82.6527 27.3314 82.6879 27.4918C82.7357 27.7325 82.7731 27.9635 82.9003 28.1715C82.8777 28.0914 82.8551 28.0114 82.8325 27.9313C82.8576 28.092 82.9116 28.2115 82.9764 28.3508C83.0414 28.5001 83.2738 28.5332 83.3919 28.4488Z" fill="#442D27"/>
<path d="M83.283 24.0012C83.1068 24.1581 83.0943 24.4007 83.131 24.6115C83.1552 24.742 83.1879 24.8217 83.2423 24.9512C83.1989 24.8516 83.2203 24.8913 83.2429 24.9713C83.3306 25.2007 83.4176 25.41 83.6428 25.5341C83.9193 25.687 84.2798 25.6353 84.5041 25.4062C84.8545 25.0319 84.6792 24.5731 84.4065 24.2183C84.1341 23.8736 83.6548 23.6666 83.283 24.0012Z" fill="#442D27"/>
<path d="M84.5957 27.6945C84.4906 28.1923 84.7485 28.7192 84.9239 29.178C85.0662 29.547 85.4447 29.7471 85.8216 29.5738C86.1687 29.4115 86.3159 28.9729 86.1042 28.6364C85.85 28.2305 85.5713 27.6841 85.1118 27.4664C84.9076 27.3718 84.6387 27.461 84.5957 27.6945Z" fill="#442D27"/>
<path d="M85.7985 32.0573C85.515 32.6415 85.4654 33.3092 85.3748 33.9479C85.2339 34.9111 86.6671 35.0581 86.6871 34.0885C86.7058 33.4016 86.6621 32.646 86.281 32.0422C86.1748 31.8639 85.8927 31.8525 85.7985 32.0573Z" fill="#442D27"/>
<path d="M82.9608 33.6399C82.951 33.6503 82.9413 33.6607 82.9316 33.6711C83.0302 33.6075 83.119 33.5543 83.2177 33.4906C82.7999 33.645 82.4354 34.2115 82.4794 34.6542C82.5112 35.0267 82.7543 35.4026 83.1492 35.4811C83.534 35.5599 83.9313 35.396 84.1215 35.0469C84.2833 34.7492 84.2637 34.447 84.1736 34.1369C84.1402 34.037 84.1066 33.9271 84.0435 33.8382C83.9913 33.7793 83.9492 33.72 83.8971 33.6611C83.7221 33.5354 83.7014 33.5158 83.8352 33.6126C83.566 33.3687 83.2051 33.4103 82.9608 33.6399Z" fill="#442D27"/>
<path d="M80.6985 36.2542C80.6929 36.3957 80.6867 36.517 80.7215 36.6673C80.7184 36.5664 80.7152 36.4656 80.7121 36.3648C80.6468 36.8513 80.8715 37.2783 81.1847 37.6419C81.4354 37.9368 81.937 37.8909 82.2118 37.6703C82.4963 37.4393 82.6125 36.9714 82.3812 36.6557C82.0975 36.271 81.7363 35.9795 81.2519 35.9341C81.3534 35.9612 81.4445 35.9785 81.546 36.0056C81.4134 35.9492 81.3019 35.9224 81.1602 35.8966C80.9067 35.8338 80.7108 36.0015 80.6985 36.2542Z" fill="#442D27"/>
<path d="M82.8073 40.3162C82.8186 40.3562 82.8199 40.3965 82.8312 40.4366C82.829 40.366 82.8268 40.2954 82.8246 40.2248C82.8082 40.3464 82.8211 40.4369 82.8551 40.5569C82.8522 40.4662 82.8497 40.3855 82.8469 40.2948C82.8237 40.5175 82.8582 40.6578 82.9651 40.8563C83.0398 40.9952 83.1338 41.1033 83.2378 41.2111C83.5186 41.5051 84.019 41.4188 84.2407 41.1091C84.4916 40.7681 84.3577 40.3484 84.0188 40.1269C83.8956 40.05 83.7731 39.9933 83.6308 39.9473C83.59 39.9284 83.3173 39.8965 83.4486 39.9126C83.5294 39.9202 83.4992 39.9211 83.3378 39.906C83.2775 39.9079 83.2275 39.9195 83.1678 39.9416C83.2583 39.9387 83.3387 39.9362 83.4292 39.9334C83.3384 39.9261 83.2573 39.9085 83.1672 39.9214C83.0972 39.9337 83.0871 39.934 83.1572 39.9217C83.1371 39.9223 83.1069 39.9233 83.0868 39.9239C82.8757 39.9305 82.7812 40.1252 82.8073 40.3162Z" fill="#442D27"/>
<path d="M83.7472 38.1875C83.7777 38.1966 83.8182 38.2054 83.849 38.2246C83.7978 38.196 83.7466 38.1673 83.6954 38.1386C83.8625 38.3352 84.2165 38.3948 84.4581 38.3973C84.72 38.4093 84.9339 38.1705 84.9565 37.9276C84.9791 37.6846 84.8192 37.3969 84.5566 37.3648C84.233 37.3143 83.7723 37.3792 83.6218 37.717C83.6608 37.6754 83.6997 37.6338 83.7484 37.5818C83.7189 37.6029 83.6894 37.6241 83.6699 37.6449C83.4532 37.7929 83.4931 38.1046 83.7472 38.1875Z" fill="#442D27"/>
<path d="M80.6506 39.2135C80.7216 39.2315 80.8024 39.2391 80.8729 39.2369C80.9631 39.224 81.043 39.2012 81.1015 39.1388C81.1502 39.0868 81.1778 39.0051 81.1756 38.9344C81.1703 38.7628 81.0155 38.6464 80.8545 38.6514C80.7741 38.654 80.6942 38.6767 80.6244 38.6991C80.5146 38.7328 80.4276 38.8467 80.4314 38.9678C80.4546 39.0681 80.5289 39.187 80.6506 39.2135Z" fill="#442D27"/>
<path d="M86.5209 39.3724C86.5218 39.4026 86.5127 39.4332 86.5137 39.4634C86.5523 39.4117 86.5909 39.3601 86.6195 39.3087C86.4216 39.4158 86.3495 39.6805 86.3159 39.8935C86.2647 40.1878 86.3056 40.5297 86.3349 40.8215C86.3798 41.2944 86.7634 41.6559 87.2537 41.5699C87.7141 41.4949 88.0313 41.0207 87.8761 40.5613C87.7755 40.2415 87.6216 39.8224 87.3724 39.5778C87.1959 39.4017 86.9383 39.2079 86.6792 39.2867C86.7602 39.3043 86.8413 39.322 86.9223 39.3396C86.9016 39.3201 86.8708 39.3009 86.8497 39.2712C86.7467 39.1937 86.5359 39.2104 86.5209 39.3724Z" fill="#442D27"/>
<path d="M87.2273 43.6196C87.2176 43.63 87.2179 43.6401 87.2081 43.6504C87.2568 43.5985 87.2958 43.5569 87.3444 43.5049C87.1271 43.6328 87.0873 43.9671 87.1445 44.1874C87.2243 44.4877 87.5805 44.6178 87.8383 44.4987C88.116 44.3689 88.2161 44.0327 88.0568 43.7652C88.0041 43.6861 87.9522 43.6373 87.88 43.579C87.8285 43.5402 87.7769 43.5014 87.7157 43.4731C87.624 43.4356 87.5335 43.4384 87.4336 43.4617C87.504 43.4595 87.5643 43.4576 87.6347 43.4554C87.6246 43.4557 87.6142 43.446 87.6042 43.4463C87.4622 43.4104 87.3036 43.486 87.2273 43.6196Z" fill="#442D27"/>
<path d="M68.1221 50.3949C68.2733 50.4003 68.4252 50.4258 68.5758 50.411C68.7164 50.3965 68.9142 50.2792 68.8582 50.0991C68.8129 49.9388 68.611 49.9249 68.4814 49.9694C68.3318 50.0145 68.2041 50.1195 68.0655 50.1946C67.9564 50.2485 68.0215 50.3981 68.1221 50.3949Z" fill="#442D27"/>
<path d="M80.3603 49.8903C80.4615 49.9073 80.5532 49.9448 80.654 49.9517C80.7753 49.9681 80.915 49.9335 81.0347 49.8994C81.3042 49.8304 81.5319 49.7123 81.6343 49.4467C81.7083 49.2425 81.502 49.0774 81.3204 49.0629C81.0886 49.0499 80.8933 49.2377 80.7161 49.3644C80.5786 49.4696 80.4618 49.5944 80.3239 49.6896C80.2655 49.7519 80.2693 49.8729 80.3603 49.8903Z" fill="#442D27"/>
<path d="M82.6164 47.7002C82.7904 47.4727 83.0021 47.4862 83.2638 47.4881C83.3847 47.4944 83.5364 47.52 83.6447 47.4459C83.7729 47.3612 83.809 47.2288 83.7841 47.0782C83.7609 46.978 83.6572 46.8803 83.5561 46.8633C83.0397 46.7584 82.6176 47.0945 82.4308 47.5546C82.3843 47.6772 82.5298 47.824 82.6164 47.7002Z" fill="#442D27"/>
<path d="M85.5676 47.8197C85.8807 47.8604 86.2872 47.989 86.4778 47.6499C86.5255 47.5677 86.5312 47.4262 86.4683 47.3474C86.332 47.17 86.1391 47.1155 85.9296 47.1725C85.7999 47.2069 85.6705 47.2513 85.5508 47.2853C85.3014 47.3537 85.2949 47.7879 85.5676 47.8197Z" fill="#442D27"/>
<path d="M50.5669 29.2036C50.9024 29.3142 51.1929 29.2749 51.5334 29.2238C51.8939 29.1722 52.2652 29.1404 52.6145 29.0487C53.6619 28.7636 53.3972 27.0561 52.2932 27.1411C51.5302 27.1953 50.5054 27.5604 50.1562 28.298C49.9669 28.6774 50.1604 29.075 50.5669 29.2036Z" fill="#442D27"/>
<path d="M54.262 27.3722C54.644 27.6832 55.0888 27.75 55.527 27.9281C55.9548 28.0963 56.4557 27.7072 56.5537 27.3004C56.6695 26.8224 56.3648 26.4081 55.9278 26.2704C55.369 26.0961 54.6752 26.1077 54.2361 26.5453C54.0213 26.7539 54.0145 27.178 54.262 27.3722Z" fill="#442D27"/>
<path d="M57.9603 27.2362C57.7798 27.8979 58.4264 28.6246 59.0539 28.7462C59.4284 28.8152 59.7852 28.6426 59.9249 28.285C60.0555 27.9579 59.931 27.5177 59.5839 27.357C59.4922 27.3195 59.4005 27.282 59.3091 27.2546C59.1567 27.2089 59.4624 27.3305 59.3191 27.2543C59.2475 27.2161 59.1655 27.1682 59.0939 27.1301C59.0223 27.092 59.2073 27.2174 59.1043 27.1399C59.0421 27.0813 58.9698 27.023 58.8882 26.9851C58.7861 26.9379 58.6739 26.8909 58.5722 26.8537C58.3174 26.7507 58.0231 26.992 57.9603 27.2362Z" fill="#442D27"/>
<path d="M57.2361 29.1766C57.2403 29.6306 57.1342 30.0982 57.1484 30.552C57.1787 31.5199 58.6458 31.4639 58.646 30.5051C58.6459 30.1821 58.5438 29.8119 58.3842 29.5343C58.2353 29.2765 58.0587 29.1004 57.841 28.8952C57.6032 28.6907 57.2364 28.8637 57.2361 29.1766Z" fill="#442D27"/>
<path d="M54.1615 29.3031C54.0692 29.5684 53.9159 29.8154 53.8748 30.1094C53.8083 30.5556 53.7816 30.9904 54.164 31.3115C54.567 31.6522 55.0972 31.5548 55.3751 31.1121C55.6342 30.7104 55.4918 30.3414 55.3187 29.9532C55.1786 29.6548 54.9612 29.4597 54.7721 29.2032C54.5936 28.9666 54.2534 29.0277 54.1615 29.3031Z" fill="#442D27"/>
<path d="M55.9604 34.3841C55.9918 34.4235 56.168 34.5896 56.0226 34.4427C56.0345 34.5029 56.0662 34.5524 56.0976 34.5918C56.1294 34.6412 56.1708 34.6803 56.2026 34.7298C56.109 34.6318 56.2544 34.7786 56.3062 34.8275C56.3788 34.8959 56.4608 34.9438 56.5428 34.9917C56.9317 35.2015 57.5187 35.3144 57.8277 34.901C58.079 34.5701 58.0968 34.1759 57.7949 33.8523C57.6287 33.686 57.4048 33.6021 57.1736 33.6094C57.0831 33.6122 56.9933 33.6352 56.9035 33.6582C56.8736 33.6692 56.7235 33.6941 56.8837 33.6689C56.7637 33.6928 56.6434 33.7067 56.5332 33.7202C56.6632 33.696 56.4729 33.7221 56.4031 33.7445C56.3435 33.7666 56.2741 33.799 56.2147 33.8311C56.2945 33.8085 56.3843 33.7855 56.4638 33.7527C56.4333 33.7436 56.4132 33.7442 56.4035 33.7546C56.232 33.7398 56.0818 33.7646 55.976 33.9194C55.8896 34.0533 55.8557 34.2562 55.9604 34.3841Z" fill="#442D27"/>
<path d="M58.6482 37.0049C58.9089 36.9765 59.1429 37.0601 59.3948 37.0724C59.7071 37.0828 59.9382 36.7526 59.8888 36.4614C59.8385 36.14 59.5313 35.9679 59.2219 36.0483C59.0721 36.0832 58.9041 36.1793 58.776 36.2641C58.6478 36.3489 58.5611 36.4727 58.4537 36.577C58.3074 36.7229 58.4375 37.0216 58.6482 37.0049Z" fill="#442D27"/>
<path d="M60.0878 33.8209C60.2866 33.744 60.4172 33.7399 60.6663 33.6615C60.9053 33.5834 61.1453 33.5355 61.373 33.4173C61.6993 33.2355 61.7957 32.7783 61.6549 32.4598C61.4931 32.1116 61.1158 31.9518 60.7465 32.0441C60.1874 32.1827 59.7914 32.7099 59.564 33.1611C59.3734 33.5001 59.6995 33.9542 60.0878 33.8209Z" fill="#442D27"/>
<path d="M61.9525 30.0584C62.3416 29.9554 62.584 29.6652 62.8365 29.3747C63.089 29.0842 63.4493 28.6995 63.4976 28.3145C63.5371 27.9701 63.4667 27.6493 63.1686 27.4467C62.8805 27.2437 62.5385 27.2443 62.242 27.4151C61.8858 27.6079 61.6783 28.0484 61.488 28.3975C61.3175 28.7359 61.1077 29.1059 61.1602 29.4978C61.213 29.8999 61.5335 30.1725 61.9525 30.0584Z" fill="#442D27"/>
<path d="M59.8481 27.1267C59.928 27.427 60.1629 27.5407 60.418 27.6539C60.6526 27.7576 60.897 27.8508 61.1596 27.883C61.5736 27.9306 62.0409 27.7545 62.1269 27.2875C62.2048 26.8814 61.9782 26.3939 61.5331 26.317C60.9872 26.2331 59.6184 26.2154 59.8481 27.1267Z" fill="#442D27"/>
<path d="M46.9728 31.3953C47.0523 31.3625 47.1314 31.3196 47.2109 31.2869C47.1311 31.3096 47.0513 31.3322 46.9719 31.365C47.553 31.2863 48.1742 30.8833 48.5209 30.388C48.704 30.1299 48.6093 29.6787 48.3715 29.4742C48.1026 29.2404 47.7703 29.2306 47.4531 29.3818C46.8787 29.6723 46.6576 30.3252 46.4331 30.8671C46.2639 31.2459 46.616 31.5679 46.9728 31.3953Z" fill="#442D27"/>
<path d="M46.3266 35.1701C46.4865 35.1348 46.7198 35.1982 46.8822 35.2435C47.2168 35.3239 47.5007 35.3958 47.8267 35.2039C48.133 35.0227 48.2296 34.5756 48.0393 34.2788C47.764 33.8433 47.2191 33.7897 46.7614 33.9554C46.4034 34.0877 46.1986 34.296 45.9559 34.5761C45.7134 34.8663 45.967 35.252 46.3266 35.1701Z" fill="#442D27"/>
<path d="M49.0569 32.0769C49.5934 32.1812 50.2659 32.4529 50.8017 32.2141C51.3177 31.986 51.5058 31.2433 50.9328 30.9383C50.2575 30.5759 49.5341 30.9316 48.9198 31.2334C48.5633 31.4161 48.6825 32.0079 49.0569 32.0769Z" fill="#442D27"/>
<path d="M49.2425 37.3598C49.5164 37.432 49.752 37.5659 50.035 37.6075C50.3079 37.6494 50.6308 37.6797 50.9016 37.6511C51.2424 37.6101 51.4679 37.4214 51.5787 37.105C51.6428 36.9012 51.5771 36.7316 51.491 36.5527C51.3835 36.334 51.098 36.2117 50.8668 36.2189C50.5754 36.2281 50.2556 36.2986 49.9864 36.3777C49.7072 36.4571 49.4911 36.6253 49.233 36.7344C48.9343 36.8345 48.9177 37.2691 49.2425 37.3598Z" fill="#442D27"/>
<path d="M53.9665 36.2431C54.0821 36.4009 54.0972 36.5619 54.1629 36.7315C54.2285 36.901 54.314 37.0598 54.3994 37.2186C54.5804 37.5359 54.8038 37.9226 55.0928 38.1558C55.7126 38.6713 56.6664 37.9652 56.2109 37.2326C55.9884 36.8762 55.6074 36.5954 55.249 36.3947C55.0954 36.3087 54.921 36.2031 54.7486 36.158C54.556 36.1136 54.3446 36.1101 54.1609 36.025C54.0387 35.9784 53.8719 36.1148 53.9665 36.2431Z" fill="#442D27"/>
<path d="M41.3897 39.7756C41.4007 39.8055 41.4014 39.8257 41.4124 39.8556C41.4095 39.7649 41.4067 39.6742 41.4038 39.5834C41.3878 39.7151 41.3809 39.8163 41.4249 39.936C41.4218 39.8352 41.4183 39.7243 41.4151 39.6234C41.2968 40.0207 41.6615 40.4231 41.9009 40.6781C42.0881 40.8741 42.4531 40.9636 42.7016 40.865C42.7116 40.8646 42.7213 40.8543 42.7314 40.8539C43.0593 40.7226 43.282 40.4431 43.281 40.0899C43.2806 40.0798 43.2803 40.0697 43.28 40.0596C43.2743 39.8781 43.1986 39.7089 43.0836 39.5712C42.9583 39.4237 42.8254 39.3572 42.6523 39.292C42.5911 39.2636 42.5298 39.2353 42.4689 39.217C42.3775 39.1896 42.277 39.1927 42.1761 39.1858C42.3885 39.2195 42.2163 39.1845 42.1758 39.1757C42.004 39.1508 41.813 39.1568 41.6758 39.2721C41.7754 39.2387 41.8752 39.2154 41.9647 39.1823C41.9044 39.1842 41.8344 39.1965 41.7744 39.2085C41.5957 39.2847 41.5957 39.2847 41.7948 39.2179C41.5137 39.2368 41.3002 39.4857 41.3897 39.7756Z" fill="#442D27"/>
<path d="M43.3227 37.8782C43.3538 37.9075 43.3852 37.9469 43.4163 37.9762C43.4371 37.9957 43.4474 38.0055 43.4682 38.025C43.4264 37.9759 43.4264 37.9759 43.4575 38.0052C43.5307 38.0937 43.5835 38.1728 43.6859 38.2302C43.7371 38.2589 43.7883 38.2875 43.8388 38.296C44.0006 38.3213 44.0207 38.3206 43.9092 38.2938C44.1112 38.3178 44.2811 38.2822 44.4064 38.1067C44.5125 37.9621 44.5354 37.7292 44.4302 37.5811C44.4409 37.601 44.4415 37.6211 44.4525 37.6511C44.4311 37.6114 44.4198 37.5714 44.3985 37.5316C44.356 37.4623 44.2835 37.3939 44.2119 37.3558C44.1399 37.3076 44.0589 37.29 43.9681 37.2827C43.867 37.2657 43.7759 37.2483 43.6845 37.2209C43.5224 37.1856 43.3336 37.2622 43.2579 37.416C43.1622 37.5703 43.198 37.7509 43.3227 37.8782Z" fill="#442D27"/>
<path d="M41.8074 36.7246C42.1218 36.4826 42.5028 36.4404 42.8178 36.2186C43.054 36.0497 43.1554 35.7538 43.0363 35.485C42.9182 35.2465 42.6103 35.0543 42.3424 35.1737C41.8261 35.3917 41.5984 35.8328 41.3824 36.324C41.2694 36.5698 41.5521 36.9243 41.8074 36.7246Z" fill="#442D27"/>
<path d="M37.6096 38.5818C37.9225 38.6124 38.2978 38.7117 38.5736 38.5214C38.9181 38.2785 38.8505 37.7255 38.4246 37.6177C38.0897 37.5272 37.7848 37.7487 37.4974 37.8889C37.3686 37.9535 37.304 38.1372 37.3285 38.2778C37.3527 38.4082 37.4582 38.5664 37.6096 38.5818Z" fill="#442D27"/>
<path d="M33.1555 39.3066C33.4087 39.3593 33.7454 39.5102 33.9835 39.4018C34.172 39.3152 34.3381 39.1586 34.3208 38.927C34.3038 38.7055 34.1678 38.5382 33.9545 38.4742C33.6802 38.3919 33.3941 38.5725 33.1356 38.6714C32.8476 38.7914 32.8314 39.236 33.1555 39.3066Z" fill="#442D27"/>
<path d="M34.8174 40.6474C34.9779 40.6323 35.0888 40.6389 35.2408 40.6746C35.4842 40.7376 35.7201 40.5586 35.7427 40.3157C35.7649 40.0627 35.5676 39.867 35.3261 39.8645C35.1147 39.861 34.9043 39.8878 34.7055 39.9646C34.5462 40.0201 34.4407 40.1849 34.4662 40.3556C34.5014 40.516 34.6471 40.673 34.8174 40.6474Z" fill="#442D27"/>
<path d="M52.5118 27.0636C52.5951 27.1518 52.6865 27.1793 52.7983 27.2161C52.737 27.1878 52.7776 27.1966 52.9101 27.253C52.9506 27.2618 52.9912 27.2707 53.0317 27.2795C53.315 27.3312 53.6269 27.3315 53.8207 27.0933C53.9661 26.9172 54.0373 26.6222 53.8903 26.425C53.7326 26.2079 53.5482 26.1026 53.2771 26.1212C53.1063 26.1265 52.9269 26.1826 52.7787 26.268C52.6603 26.3424 52.5221 26.4274 52.4555 26.5506C52.3503 26.7255 52.3764 26.9165 52.5118 27.0636Z" fill="#442D27"/>
<path d="M53.6925 28.4599C53.6592 28.36 53.6699 28.3798 53.7349 28.5292C53.7663 28.5686 53.7974 28.5979 53.8288 28.6373C53.8703 28.6763 53.9118 28.7154 53.963 28.7441C54.1178 28.8705 54.2517 28.9672 54.4445 29.0217C54.7589 29.1027 55.0853 28.9209 55.1967 28.6247C55.3079 28.3185 55.1866 27.9791 54.9098 27.8162C54.7459 27.7204 54.5744 27.7056 54.3828 27.6914C54.3322 27.6829 54.292 27.6841 54.2414 27.6756C54.1811 27.6775 53.9512 27.7251 54.1013 27.7002C53.921 27.726 53.7822 27.7909 53.6868 27.9554C53.601 28.1095 53.5979 28.3316 53.6925 28.4599Z" fill="#442D27"/>
<path d="M51.0327 30.592C50.9203 30.5349 51.2909 30.8059 51.1675 30.719C51.2498 30.777 51.3214 30.8151 51.4034 30.863C51.6585 30.9761 51.8812 31.0196 52.161 30.9604C52.401 30.9125 52.564 30.6551 52.5872 30.4323C52.6094 30.1793 52.4916 29.9508 52.2764 29.8264C52.0506 29.682 51.7085 29.6826 51.4601 29.7813C51.3508 29.8251 51.2123 29.9 51.1539 29.9624C51.1539 29.9624 51.0659 30.0459 51.0367 30.0771C51.0078 30.1184 50.9994 30.1691 50.9705 30.2104C50.8631 30.3147 50.8895 30.5157 51.0327 30.592Z" fill="#442D27"/>
<path d="M49.3823 29.9371C49.4278 29.7843 49.5142 29.6504 49.5801 29.507C49.646 29.3637 49.7019 29.2206 49.7471 29.0577C49.8187 28.7729 49.6085 28.4867 49.3262 28.4653C49.0435 28.4338 48.769 28.6644 48.7885 28.9666C48.7945 29.1582 48.8404 29.3384 48.9161 29.5076C48.9815 29.6671 49.0858 29.7849 49.1511 29.9444C49.1945 30.0439 49.3459 30.0594 49.3823 29.9371Z" fill="#442D27"/>
<path d="M27.5196 40.5327C27.9072 40.7023 28.4195 40.6761 28.7958 40.4827C28.9937 40.3755 29.086 40.1102 29.0492 39.8994C29.0118 39.6685 28.8456 39.5021 28.6219 39.4283C28.1341 39.272 27.4312 39.6372 27.3575 40.1744C27.3415 40.3061 27.387 40.4763 27.5196 40.5327Z" fill="#442D27"/>
<path d="M29.0192 41.5152C29.0292 41.5149 29.0396 41.5247 29.0396 41.5247C28.9884 41.496 28.9372 41.4674 28.886 41.4387C28.9381 41.4976 29.0305 41.5553 29.1112 41.5628C29.1618 41.5713 29.1517 41.5717 29.0804 41.5436C29.1112 41.5628 29.1316 41.5723 29.1621 41.5814C29.213 41.6 29.2639 41.6186 29.3245 41.6268C29.4859 41.6419 29.5164 41.6511 29.3952 41.6347C29.4558 41.6429 29.5164 41.6511 29.5767 41.6492C29.7077 41.6552 29.866 41.5695 29.9536 41.4759C30.0412 41.3823 30.1065 41.2188 30.1024 41.0877C30.088 40.9469 30.0433 40.807 29.9296 40.7096C29.8159 40.6122 29.694 40.5757 29.5426 40.5602C29.351 40.546 29.112 40.6242 28.9854 40.7593C28.9562 40.7905 28.9371 40.8214 28.9079 40.8526C28.8693 40.9043 28.8303 40.9459 28.8121 41.007C28.7929 41.0379 28.7838 41.0684 28.7851 41.1088C28.7773 41.1797 28.7773 41.1797 28.7857 41.1289C28.7408 41.3019 28.8568 41.4699 29.0192 41.5152Z" fill="#442D27"/>
<path d="M17.8272 44.2778C17.8373 44.2775 17.8577 44.2869 17.8678 44.2866C17.8065 44.2582 17.755 44.2195 17.6937 44.1911C17.8709 44.3874 18.1618 44.3581 18.3917 44.3106C18.6514 44.252 18.8892 44.1335 19.0123 43.8874C19.1925 43.5386 18.9459 43.0518 18.5244 43.0852C18.394 43.0993 18.2539 43.1239 18.1456 43.198C18.1355 43.1983 17.9691 43.3448 18.0573 43.2714C18.0181 43.3029 17.9889 43.3341 17.9496 43.3656C17.9791 43.3445 17.9889 43.3341 17.9496 43.3656C17.861 43.4289 17.7725 43.4922 17.7046 43.5751C17.5884 43.72 17.743 43.5134 17.6566 43.6473C17.6183 43.709 17.5897 43.7604 17.5816 43.8212C17.6098 43.7598 17.6484 43.7081 17.6767 43.6466C17.667 43.657 17.6572 43.6674 17.6475 43.6778C17.4729 43.8852 17.5637 44.2154 17.8272 44.2778Z" fill="#442D27"/>
<path d="M19.1418 42.5612C19.1612 42.5404 19.1911 42.5294 19.2109 42.5187C19.171 42.53 19.1311 42.5413 19.0912 42.5527C19.1615 42.5505 19.2212 42.5284 19.2913 42.5161C19.231 42.518 19.1707 42.5199 19.1204 42.5215C19.2423 42.558 19.3528 42.5546 19.4822 42.5102C19.5419 42.4881 19.6013 42.456 19.6603 42.4138C19.7194 42.3715 19.7684 42.3296 19.8063 42.2578C19.8528 42.1352 19.8525 42.1251 19.8252 42.2168C19.8811 42.0738 19.8854 41.892 19.7513 41.7851C19.5657 41.6396 19.3436 41.6162 19.136 41.7337C18.9683 41.8399 18.8728 42.0044 18.8788 42.196C18.887 42.1352 18.9055 42.0841 18.9136 42.0233C18.8662 42.1156 18.849 42.207 18.832 42.3085C18.7677 42.5023 18.9844 42.6771 19.1418 42.5612Z" fill="#442D27"/>
<path d="M21.158 43.3261C21.2184 43.3242 21.2684 43.3126 21.3288 43.3107C21.409 43.2981 21.4687 43.276 21.5281 43.2438C21.6272 43.1902 21.6319 43.0183 21.5196 42.9713C21.4482 42.9432 21.3872 42.9249 21.3168 42.9271C21.2564 42.929 21.2061 42.9306 21.1457 42.9325C21.0451 42.9356 20.9373 43.0299 20.9508 43.1406C20.9536 43.2315 21.0477 43.3397 21.158 43.3261Z" fill="#442D27"/>
<path d="M31.2256 45.1503C31.2975 45.1985 31.3801 45.2666 31.4521 45.3148C31.5545 45.3722 31.6559 45.3993 31.7671 45.416C32.1315 45.4853 32.3472 44.984 32.0092 44.7927C31.9068 44.7354 31.8144 44.6777 31.7032 44.661C31.6122 44.6437 31.5113 44.6367 31.4206 44.6295C31.2792 44.6137 31.1498 44.6581 31.0939 44.8012C31.0481 44.9439 31.1125 45.0731 31.2256 45.1503Z" fill="#442D27"/>
<path d="M37.0123 47.1291C37.2781 47.5851 38.0771 47.7216 38.5445 47.5454C39.0517 47.358 39.0199 46.6626 38.512 46.5069C38.2987 46.4429 38.0374 46.4511 37.8056 46.4381C37.5738 46.4252 37.353 46.4422 37.1457 46.5698C36.9478 46.6769 36.9058 46.9407 37.0123 47.1291Z" fill="#442D27"/>
<path d="M35.6727 45.1524C35.7842 45.1792 35.896 45.2161 36.0075 45.2429C36.1596 45.2785 36.3107 45.2838 36.4605 45.2489C36.6505 45.2126 36.7642 44.987 36.7283 44.8065C36.6915 44.5957 36.5273 44.4898 36.3256 44.4759C36.0838 44.4633 35.8667 44.6013 35.6478 44.6788C35.439 44.756 35.4195 45.0998 35.6727 45.1524Z" fill="#442D27"/>
<path d="M28.0544 13.2649C28.0909 13.7886 28.2976 14.2868 28.4444 14.7969C28.7722 15.9474 28.7711 17.1989 28.4145 18.3405C28.3595 18.5138 28.3043 18.677 28.239 18.8406C29.137 19.2464 30.1186 19.4277 31.1027 19.3666C31.3536 19.3487 31.604 19.3105 31.8533 19.2422C32.3262 18.2786 32.6465 17.2593 32.6733 16.1886C32.7333 14.2489 31.5206 12.1471 29.6086 11.8133C29.2952 11.7626 28.9628 11.7528 28.6758 11.9031C28.221 12.1596 28.0179 12.7412 28.0544 13.2649Z" fill="#442D27"/>
<path d="M27.2091 25.4837C27.5241 25.5848 27.8483 25.6554 28.1708 25.6756C28.2066 25.5332 28.2525 25.3905 28.2983 25.2477C28.4732 24.7275 28.7096 24.2457 28.9866 23.7728C28.1105 23.1038 27.0123 22.7345 25.9196 22.5365C25.4758 23.1459 25.0425 23.765 24.7008 24.4217C24.823 24.4683 24.9348 24.5052 25.057 24.5518C25.7804 24.8421 26.4671 25.2445 27.2091 25.4837Z" fill="#442D27"/>
<path d="M30.8229 21.0306C30.1569 20.6477 29.3299 20.5828 28.5694 20.3946C28.2449 20.314 27.9299 20.2128 27.6242 20.0912C27.3661 20.5231 27.0775 20.946 26.7786 21.3591C27.4967 21.8009 28.2242 22.2222 29.0349 22.4088C29.2881 22.4614 29.5406 22.4939 29.8026 22.5058C30.0337 22.1756 30.2749 21.8451 30.5057 21.5048C30.6018 21.3605 30.7173 21.1954 30.8229 21.0306Z" fill="#442D27"/>
<path d="M24.9278 27.1599C24.843 27.3442 24.7382 27.5292 24.7347 27.7412C24.7219 27.9738 24.7791 28.194 24.8762 28.4029C24.9623 28.5819 25.2349 28.6138 25.3828 28.5183C25.5606 28.4118 25.5935 28.1786 25.4977 28.01C25.3699 27.7819 25.2099 27.4942 25.2017 27.2321C25.197 27.0808 24.9938 27.0165 24.9278 27.1599Z" fill="#442D27"/>
<path d="M26.4122 27.0125C26.3363 27.1562 26.2414 27.3408 26.2367 27.5125C26.2336 27.7347 26.332 27.9839 26.5365 28.0886C26.7717 28.2124 27.0883 28.041 27.0694 27.759C27.055 27.6181 26.9802 27.4792 26.9271 27.39C26.8951 27.3305 26.853 27.2712 26.8209 27.2117C26.8222 27.252 26.8219 27.2419 26.8203 27.1915C26.8193 27.1612 26.8187 27.1411 26.8278 27.1105C26.851 26.8877 26.5071 26.8279 26.4122 27.0125Z" fill="#442D27"/>
<path d="M25.2731 29.8439C25.3287 29.6908 25.3193 29.7112 25.2357 29.9359C25.2182 30.0172 25.2103 30.0881 25.2128 30.1688C25.2166 30.2898 25.2402 30.4 25.2839 30.5097C25.3602 30.6991 25.4463 30.878 25.5723 31.0457C25.8865 31.4396 26.3649 31.9393 26.9158 31.8615C27.2164 31.8219 27.4548 31.7236 27.6379 31.4655C27.7921 31.2487 27.8922 30.9125 27.7832 30.6434C27.7071 30.4641 27.632 30.3151 27.4966 30.1679C27.403 30.0699 27.2805 30.0132 27.1678 29.9461C27.0446 29.8692 26.9215 29.7923 26.7987 29.7255C26.7782 29.716 26.7575 29.6965 26.7371 29.687C26.8709 29.7838 26.8298 29.7548 26.624 29.6098C26.5624 29.5714 26.5012 29.543 26.4399 29.5147C26.2046 29.3908 25.9709 29.3174 25.7121 29.4062C25.8328 29.4025 25.9534 29.3987 26.084 29.3946C26.0639 29.3952 26.0435 29.3858 26.0335 29.3861C25.7096 29.3256 25.3522 29.4781 25.2731 29.8439Z" fill="#442D27"/>
<path d="M27.3117 33.2622C27.3969 33.4109 27.4399 33.5004 27.5741 33.6072C27.7079 33.7039 27.8411 33.7805 27.9944 33.8565C28.2906 33.9986 28.649 34.1993 28.9895 34.1483C29.5206 34.0812 29.8133 33.4665 29.398 33.0556C29.1382 32.7912 28.7436 32.7228 28.3893 32.6531C28.025 32.5838 27.7014 32.5334 27.3977 32.7952C27.4568 32.753 27.5259 32.7104 27.5852 32.6783C27.5554 32.6893 27.5256 32.7004 27.5058 32.7111C27.2972 32.7983 27.1842 33.0441 27.3117 33.2622Z" fill="#442D27"/>
<path d="M26.9055 29.2781C26.9762 29.2859 27.0469 29.2938 27.1279 29.3115C27.2903 29.3568 27.47 29.3109 27.6082 29.2258C27.7661 29.13 27.8597 28.905 27.7937 28.7254C27.7714 28.6555 27.729 28.5861 27.6772 28.5373C27.6146 28.4686 27.4617 28.4027 27.3615 28.416C27.1812 28.4418 27.042 28.4966 26.9255 28.6315C26.8963 28.6627 26.8775 28.7036 26.8483 28.7348C26.8772 28.6935 26.8772 28.6935 26.848 28.7247C26.8188 28.7559 26.7896 28.7871 26.7704 28.818C26.6441 28.9633 26.6835 29.2547 26.9055 29.2781Z" fill="#442D27"/>
<path d="M25.126 26.4274C25.1672 26.4565 25.2084 26.4855 25.259 26.494C25.33 26.512 25.3998 26.4896 25.4696 26.4672C25.5596 26.4442 25.6369 26.3407 25.6337 26.2398C25.6306 26.1388 25.5567 26.03 25.4557 26.0231C25.3749 26.0155 25.2938 25.9978 25.2143 26.0306C25.1646 26.0524 25.1155 26.0943 25.0766 26.136C25.0376 26.1776 25.0193 26.2388 25.0313 26.2991C25.0429 26.3492 25.0744 26.3886 25.126 26.4274Z" fill="#442D27"/>
<path d="M30.6499 33.8238C30.7326 33.8919 30.7552 33.9719 30.8281 34.0504C30.8695 34.0895 30.9311 34.1279 30.9823 34.1566C31.1469 34.2726 31.3514 34.3772 31.5443 34.4317C31.8691 34.5225 32.4118 34.5055 32.5097 34.0987C32.6083 33.7121 32.1673 33.4433 31.8529 33.3623C31.6603 33.3178 31.4191 33.3254 31.2284 33.3415C31.1584 33.3537 31.0478 33.3572 30.9781 33.3796C30.8886 33.4127 30.8201 33.4754 30.7202 33.4987C30.5908 33.5431 30.5469 33.7463 30.6499 33.8238Z" fill="#442D27"/>
<path d="M34.0508 35.1304C34.1265 35.2996 34.2405 35.4071 34.3948 35.5133C34.641 35.667 35.0139 35.6857 35.2073 35.4374C35.3719 35.2304 35.4026 34.9266 35.1856 34.7416C34.9889 34.5661 34.747 34.5535 34.508 34.6316C34.4681 34.643 34.4182 34.6546 34.3783 34.666C34.3485 34.677 34.3089 34.6984 34.2791 34.7094C34.3287 34.6877 34.3387 34.6874 34.3089 34.6984C34.3092 34.7085 34.2288 34.711 34.2891 34.7091C34.0583 34.7265 33.9537 34.9215 34.0508 35.1304Z" fill="#442D27"/>
<path d="M36.1294 34.9947C36.4322 35.0256 36.7664 35.0959 36.9897 34.8366C37.077 34.7329 37.082 34.5713 36.9784 34.4736C36.7088 34.2196 36.3608 34.3516 36.0414 34.4322C35.9016 34.4669 35.8159 34.621 35.8404 34.7615C35.8649 34.902 35.978 34.9792 36.1294 34.9947Z" fill="#442D27"/>
<path d="M62.757 30.0535C62.6714 31.1764 62.7366 32.2947 62.8222 33.4225C62.9069 34.5199 62.9912 35.6073 63.0859 36.7045C62.9036 33.4502 63.3337 30.1565 64.3538 27.0664C64.3908 26.9643 64.4175 26.8525 64.4043 26.752C64.3392 26.2796 63.941 26.7362 63.8037 26.8515C63.5195 27.0925 63.4046 27.2778 63.2752 27.6452C62.9773 28.4115 62.8219 29.2339 62.757 30.0535Z" fill="#442D27"/>
<path d="M56.8057 26.364C56.9204 26.4916 57.0822 26.5168 57.2442 26.5521C57.4264 26.5868 57.6096 26.6517 57.7905 26.6461C58.0616 26.6275 58.1001 26.2528 57.8363 26.1804C57.6635 26.1252 57.4631 26.1517 57.2819 26.1472C57.1207 26.1422 56.9596 26.1371 56.8217 26.2323C56.7721 26.254 56.7643 26.3249 56.8057 26.364Z" fill="#442D27"/>
<path d="M57.0282 28.3151L57.0382 28.3148C56.9984 28.3261 56.9581 28.3274 56.9183 28.3387C56.9384 28.3381 56.9585 28.3374 56.9886 28.3365C57.1092 28.3327 57.2185 28.2889 57.3171 28.2253C57.4456 28.1506 57.532 28.0167 57.5678 27.8743C57.6227 27.701 57.5564 27.5113 57.4518 27.3834C57.2426 27.1275 56.8289 27.09 56.6056 27.3493C56.4988 27.4737 56.4134 27.6379 56.4288 27.809C56.431 27.8796 56.4433 27.9498 56.4656 28.0198C56.4992 28.1298 56.5831 28.2382 56.6852 28.2854C56.726 28.3043 56.7565 28.3135 56.7973 28.3324C56.868 28.3403 56.9484 28.3377 57.0282 28.3151Z" fill="#442D27"/>
<path d="M49.5347 28.0551C49.8089 28.1373 50.1157 27.9763 50.3742 27.8774C50.7222 27.7454 50.4951 27.2378 50.1584 27.4098C49.9109 27.5386 49.5927 27.6596 49.4703 27.9259C49.4521 27.987 49.4737 28.0368 49.5347 28.0551Z" fill="#442D27"/>
<path d="M51.1667 27.1568C51.1972 27.1659 51.1362 27.1476 51.1872 27.1662C51.2076 27.1757 51.2378 27.1747 51.2579 27.1741C51.2982 27.1728 51.3579 27.1508 51.378 27.1501C51.3881 27.1498 51.4384 27.1483 51.4686 27.1473C51.4988 27.1464 51.5286 27.1353 51.5588 27.1344C51.5088 27.146 51.6189 27.1224 51.639 27.1218C51.7689 27.0874 51.8352 26.954 51.821 26.8231C51.7971 26.7026 51.6826 26.5849 51.5521 26.5991C51.4018 26.624 51.2827 26.6782 51.1858 26.8025C51.1469 26.8442 51.0984 26.9063 51.0802 26.9675C51.0711 26.9981 51.0721 27.0284 51.0727 27.0486C51.0733 27.0687 51.084 27.0886 51.0947 27.1085C51.084 27.0886 51.084 27.0886 51.0846 27.1088C51.1151 27.118 51.1463 27.1473 51.1667 27.1568Z" fill="#442D27"/>
<path d="M58.5183 26.4214C58.6726 26.5276 58.8852 26.5714 59.0677 26.6162C59.1893 26.6427 59.3206 26.6587 59.418 26.5548C59.4861 26.482 59.5037 26.4007 59.4804 26.3005C59.4575 26.2104 59.3752 26.1524 59.2938 26.1247C59.0805 26.0607 58.7278 26.0414 58.5416 26.1987C58.4825 26.2409 58.436 26.3635 58.5183 26.4214Z" fill="#442D27"/>
<path d="M60.3473 28.2819C60.2879 28.314 60.2487 28.3455 60.1997 28.3874C60.2393 28.366 60.2785 28.3345 60.3181 28.3131C60.238 28.3257 60.1601 28.4088 60.1309 28.44C60.0822 28.492 59.9946 28.5856 59.9475 28.688C59.9101 28.78 59.8825 28.8616 59.8756 28.9628C59.8521 29.1755 59.9068 29.3151 60.0425 29.4723C60.1986 29.639 60.5407 29.6384 60.6857 29.4522C60.7727 29.3384 60.8493 29.2149 60.8446 29.0636C60.8408 28.9427 60.8289 28.8825 60.7846 28.7526C60.7733 28.7126 60.762 28.6726 60.7406 28.6329C60.7293 28.5929 60.7082 28.5633 60.6875 28.5437C60.6457 28.4946 60.6454 28.4845 60.6768 28.5239C60.6982 28.5636 60.7079 28.5532 60.6765 28.5138C60.6655 28.4839 60.6548 28.464 60.6341 28.4445C60.6027 28.4051 60.5716 28.3758 60.5307 28.3569C60.5725 28.406 60.6146 28.4653 60.6564 28.5144C60.6243 28.4549 60.6027 28.4051 60.5609 28.3559C60.5075 28.2567 60.4264 28.239 60.3473 28.2819Z" fill="#442D27"/>
<path d="M58.9176 29.5377C58.872 29.6906 58.8466 29.8428 58.8919 30.0028C58.9381 30.1931 59.1159 30.4096 59.3351 30.3422C59.5443 30.2751 59.5267 30.0334 59.4513 29.8743C59.3865 29.735 59.2725 29.6276 59.188 29.499C59.1139 29.3802 58.9543 29.4256 58.9176 29.5377Z" fill="#442D27"/>
<path d="M59.5736 30.89C59.5758 30.9607 59.5881 31.031 59.5903 31.1017C59.6035 31.2023 59.6469 31.302 59.7001 31.3912C59.774 31.5001 59.9061 31.5364 60.0152 31.4824C60.1246 31.4386 60.2007 31.2947 60.1566 31.1749C60.1135 31.0853 60.0701 30.9856 59.9874 30.9175C59.9255 30.8689 59.8635 30.8203 59.8016 30.7717C59.7292 30.7134 59.5594 30.7591 59.5736 30.89Z" fill="#442D27"/>
<path d="M60.8263 30.7295C61.0867 30.6911 61.5107 30.7384 61.6322 30.4419C61.6881 30.2988 61.6714 30.0874 61.5084 30.0219C61.3149 29.9472 61.145 29.9828 60.988 30.1088C60.8897 30.1825 60.8017 30.266 60.7034 30.3397C60.6246 30.3927 60.5775 30.4951 60.6105 30.5849C60.6432 30.6646 60.7361 30.7424 60.8263 30.7295Z" fill="#442D27"/>
<path d="M56.175 29.3511C56.1685 29.4623 56.1622 29.5836 56.1757 29.6942C56.1902 29.8351 56.2339 29.9447 56.3083 30.0736C56.351 30.153 56.4534 30.2104 56.5436 30.1974C56.5637 30.1968 56.5938 30.1959 56.6136 30.1852C56.7333 30.1511 56.7901 30.0383 56.7967 29.9271C56.8187 29.664 56.7115 29.4554 56.594 29.237C56.4762 29.0086 56.1888 29.1488 56.175 29.3511Z" fill="#442D27"/>
<path d="M44.6591 33.9707C44.8271 33.8746 44.9955 33.7886 45.1324 33.6632C45.2791 33.5274 45.4556 33.3806 45.4486 33.1588C45.4445 33.0277 45.3302 32.9102 45.1998 32.9243C44.9689 32.9416 44.8537 33.1168 44.7284 33.2923C44.6125 33.4474 44.5378 33.6314 44.4627 33.8053C44.4059 33.9181 44.5303 34.0353 44.6591 33.9707Z" fill="#442D27"/>
<path d="M45.1695 32.6023C45.2866 32.4876 45.4242 32.3824 45.531 32.2579C45.6377 32.1335 45.7429 31.9586 45.6876 31.7989C45.6653 31.7289 45.5927 31.6605 45.5126 31.6731C45.1521 31.7248 45.0874 32.2315 44.9958 32.5169C44.9785 32.6083 45.1111 32.6647 45.1695 32.6023Z" fill="#442D27"/>
<path d="M46.2872 32.6279C46.6336 32.7685 46.934 33.0417 47.299 33.1312C47.7346 33.2285 47.8982 32.6683 47.569 32.4364C47.2294 32.1947 46.7583 32.2498 46.3669 32.2822C46.2067 32.3074 46.104 32.563 46.2872 32.6279Z" fill="#442D27"/>
<path d="M85.0654 36.2793C85.0767 36.3193 85.0783 36.3698 85.0896 36.4098C85.112 36.4799 85.1742 36.5385 85.2264 36.5975C85.2579 36.637 85.289 36.6663 85.3202 36.6956C85.372 36.7445 85.4434 36.7726 85.5047 36.801C85.6073 36.8584 85.7478 36.8439 85.8255 36.7506C85.9034 36.6673 85.9292 36.525 85.8556 36.4263C85.8138 36.3771 85.7817 36.3175 85.7399 36.2682C85.688 36.2194 85.6263 36.1809 85.5647 36.1424C85.5031 36.1039 85.4515 36.0651 85.3707 36.0575C85.3201 36.049 85.2697 36.0506 85.2191 36.0421C85.1081 36.0354 85.0421 36.1789 85.0654 36.2793Z" fill="#442D27"/>
<path d="M86.0617 37.5599C85.9119 37.9178 85.7643 38.3464 85.9472 38.7242C86.0543 38.9328 86.4347 38.8704 86.4676 38.6372C86.5078 38.313 86.3865 37.9736 86.3962 37.6403C86.4009 37.4685 86.127 37.3964 86.0617 37.5599Z" fill="#442D27"/>
<path d="M86.2224 35.9501C86.1081 36.1555 86.0447 36.3795 86.0519 36.6115C86.0576 36.793 86.2225 36.919 86.3928 36.8935C86.5731 36.8677 86.6682 36.6931 86.6226 36.523C86.5881 36.3827 86.5736 36.2419 86.6094 36.0995C86.6524 35.866 86.3468 35.7443 86.2224 35.9501Z" fill="#442D27"/>
<path d="M84.4477 34.5326C84.487 34.501 84.526 34.4594 84.5553 34.4282C84.6141 34.3758 84.6323 34.3146 84.6502 34.2433C84.6684 34.1821 84.636 34.1124 84.5845 34.0736C84.5228 34.0351 84.4625 34.037 84.403 34.0692C84.3436 34.1014 84.304 34.1228 84.2653 34.1745C84.2364 34.2159 84.2075 34.2572 84.1785 34.2985C84.1496 34.3398 84.1308 34.3808 84.1323 34.4313C84.1336 34.4717 84.1556 34.5316 84.1868 34.561C84.2688 34.6089 84.3695 34.6058 84.4477 34.5326Z" fill="#442D27"/>
<path d="M85.0975 32.15C85.2049 32.0457 85.322 31.931 85.4398 31.8365C85.5968 31.7104 85.7548 31.6147 85.8088 31.4111C85.8452 31.2889 85.7604 31.1502 85.6388 31.1237C85.3957 31.0708 85.1893 31.2286 85.0336 31.395C84.8778 31.5614 84.7924 31.7255 84.7186 31.9398C84.6451 32.1641 84.9511 32.2959 85.0975 32.15Z" fill="#442D27"/>
<path d="M85.9474 31.0135C86.1788 31.0063 86.1674 30.6429 85.936 30.6501C85.6942 30.6476 85.7059 31.0211 85.9474 31.0135Z" fill="#442D27"/>
<path d="M84.1396 28.85C84.177 28.7579 84.2147 28.6759 84.242 28.5841C84.2794 28.492 84.3272 28.4097 84.3241 28.3087C84.3287 28.1368 84.1068 28.1236 84.0297 28.2371C83.9816 28.3094 83.9647 28.4109 83.9471 28.4923C83.9295 28.5737 83.9021 28.6655 83.8845 28.7469C83.8591 28.8992 84.0836 28.9932 84.1396 28.85Z" fill="#442D27"/>
<path d="M65.0635 38.4997C64.9822 38.795 64.736 39.2871 64.9559 39.5628C65.0502 39.681 65.1918 39.7069 65.3093 39.6022C65.5734 39.3618 65.4163 38.8419 65.3663 38.5306C65.3509 38.3595 65.1181 38.3163 65.0635 38.4997Z" fill="#442D27"/>
<path d="M64.4408 40.1344C64.4629 40.1943 64.4748 40.2546 64.5069 40.3142C64.5393 40.3839 64.6009 40.4224 64.6528 40.4713C64.777 40.5786 64.9556 40.4921 64.9606 40.3303C64.9685 40.2593 64.9766 40.1985 64.9543 40.1284C64.9323 40.0685 64.8898 39.9991 64.8577 39.9395C64.8043 39.8401 64.6621 39.8042 64.5631 39.8578C64.4638 39.9013 64.4069 40.0142 64.4408 40.1344Z" fill="#442D27"/>
<path d="M82.8902 22.7115C82.8761 22.9037 82.9012 23.0644 82.987 23.2333C83.0197 23.313 83.0621 23.3823 83.1246 23.451C83.2079 23.5392 83.3197 23.5761 83.4315 23.613C83.5534 23.6495 83.6919 23.5746 83.7491 23.4718C83.8156 23.3486 83.7814 23.2185 83.6978 23.1202C83.656 23.071 83.624 23.0115 83.5624 22.973C83.5109 22.9343 83.4801 22.915 83.4283 22.8662C83.3453 22.7881 83.2822 22.6992 83.2288 22.5999C83.1427 22.421 82.9052 22.5495 82.8902 22.7115Z" fill="#442D27"/>
</svg>
